<svg width="334" height="253" viewBox="0 0 334 253" fill="none" xmlns="http://www.w3.org/2000/svg">
<path d="M256.395 0.311907C287.447 -2.75046 318.272 21.9382 321.936 52.6824C324.346 72.9115 317.914 95.0169 306.349 111.665C295.589 127.158 281.68 140.58 270.02 155.391C268.922 156.787 267.298 158.011 266.347 159.255C259.306 168.454 250.933 176.756 244 186.098L244.155 186.279L301.413 186.362C312.081 186.365 323.37 186.541 333.989 186.304C332.935 194.822 334.756 250.104 333.301 252.092C331.894 252.636 231.897 252.246 223.117 252.247L179.601 252.126C178.298 252.11 176.17 252.518 175.131 251.855C175.294 250.589 207.467 213.443 211.18 209.083L230.002 187.288C230.383 186.85 233.408 184.004 233.46 183.895C234.901 180.904 237.173 179.124 239.241 176.702C243.447 171.784 247.548 166.706 252.053 162.072C252.912 161.188 253.421 159.897 254.224 158.959C258.921 154.083 263.276 148.736 267.58 143.506C268.58 142.209 270.312 141.076 271.272 139.804C279.56 128.811 290.068 119.373 297.462 107.718C294.898 109.292 292.572 111.538 289.927 113.006C268.61 124.834 239.417 122.43 220.881 106.516C180.251 71.634 201.164 3.51942 256.395 0.311907Z" fill="#040404"/>
<path d="M81.2815 0.311069C89.087 -0.912668 101.395 1.67356 108.534 4.59086C154.229 23.2632 156.738 75.2514 131.162 111.88C124.704 121.387 116.64 129.679 109.323 138.397C100.791 148.56 92.1204 158.688 83.5695 168.799C81.6414 171.079 69.4812 184.681 68.889 186.277L123.68 186.357C134.889 186.359 147.794 186.665 158.883 186.261C158.567 188.546 158.66 192.893 158.66 195.297L158.675 210.18C158.69 223.907 158.359 238.871 158.742 252.484C156.555 252.037 150.491 252.211 147.896 252.216L127.195 252.252L47.4871 252.248C42.6692 252.25 0.863514 252.42 0 251.971C0.00623378 251.811 0.0127385 251.651 0.0189723 251.491C5.21713 245.054 18.7688 229.472 23.3439 224.037L42.1463 202.062C43.0912 200.955 44.7949 199.644 45.6183 198.609C48.3397 195.186 51.4859 191.173 54.3702 187.905C69.2554 171.061 83.9457 154.046 98.4387 136.864L110.596 122.759C113.755 119.137 120.367 111.766 122.406 107.68C119.735 109.738 116.608 112.258 113.602 113.78C75.0775 133.287 26.9785 108.452 24.7478 64.2018C23.033 30.1842 47.1483 2.5618 81.2815 0.311069Z" fill="#040404"/>
</svg>
