<svg width="653" height="227" viewBox="0 0 653 227" fill="none" xmlns="http://www.w3.org/2000/svg">
<path d="M17.3144 0H633.958C640.522 1.83763 645.506 4.85292 648.941 10.9308C650.069 12.9227 651.749 16.7381 651.803 18.9943C651.962 25.7887 651.886 32.7766 651.886 39.5701L651.883 80.2875V174.143C651.886 182.863 651.793 192.241 651.905 200.918C652.118 217.303 647.523 220.738 633.76 227H17.6252C16.9221 226.484 15.2447 225.855 14.3635 225.504C6.0799 222.205 2.53209 217.434 0 208.991V17.3362C4.94003 6.16806 5.28617 4.77271 17.3144 0ZM632.638 220.275C637.03 219.278 640.828 216.544 643.167 212.696C646.105 207.925 645.216 196.391 645.207 190.462L645.175 163.802V81.3502L645.191 39.3663C645.194 32.9172 645.264 26.4912 645.015 20.0458C644.837 15.4212 641.724 10.8697 637.798 8.55105C635.815 7.36443 633.553 6.72363 631.243 6.6936C616.97 6.3742 601.53 6.65263 587.197 6.65254L502.222 6.65563L247.552 6.65611L94.0516 6.66098L44.7985 6.66079C37.8217 6.66031 26.2277 6.27228 19.5591 6.77927C3.94682 9.61699 6.6649 23.9224 6.6881 36.0962L6.70655 61.8626L6.71159 143.014L6.69192 187.379C6.68931 191.408 6.6931 195.494 6.69065 199.525C6.68606 207.132 6.15281 213.359 13.4878 217.848C16.6938 219.81 18.5309 220.355 22.3825 220.285C36.1598 220.373 49.9641 220.322 63.7399 220.314L139.991 220.307L374.44 220.309L547.262 220.311L604.061 220.31C612.786 220.309 624.073 220.647 632.638 220.275Z" fill="#FEFEFE"/>
<path d="M165.7 134.964C188.682 134.613 212.543 134.929 235.573 134.934L367.812 134.936L446.825 134.929L472.331 134.922C476.815 134.922 482.704 134.773 487.104 135.041C490.272 135.244 493.347 136.186 496.084 137.79C498.548 139.227 502.515 144.124 502.767 146.901C503.955 160.702 503.36 175.123 503.105 188.999C502.968 196.521 495.664 201.381 489.106 203.045C466.512 203.433 442.906 203.084 420.255 203.084L286.64 203.082L206.701 203.089L180.626 203.099C173.813 203.099 164.674 204.1 158.729 200.741C149.996 195.807 150.483 186.073 150.676 177.4C150.773 173.083 150.652 168.595 150.726 164.26C150.825 149.183 148.395 139.419 165.7 134.964ZM489.555 199.487C493.516 197.691 497.177 195.686 498.793 191.353C500.068 187.936 499.892 154.978 499.462 150.175C499.328 148.591 498.924 147.042 498.267 145.595C494.118 136.617 482.427 138.67 474.141 138.678L445.898 138.7L248.334 138.698L191.116 138.686L173.758 138.661C172.069 138.66 166.633 138.567 165.271 138.74C154.93 141.063 154.144 148.431 154.306 157.402C154.466 166.267 154.141 175.238 154.255 184.112C154.081 191.2 157.305 198.133 164.817 199.238C170.283 200.043 179.098 199.604 184.853 199.603L218.306 199.591L320.392 199.587L432.511 199.584L469.167 199.59C475.518 199.592 483.312 199.786 489.555 199.487Z" fill="#FEFEFE"/>
<path d="M166.369 173.856C169.559 173.878 184.702 173.39 186.27 174.395C187.018 175.688 187.137 179.379 186.087 180.644C181.835 181.096 170.731 180.76 166.185 180.735C165.918 178.551 165.385 175.827 166.369 173.856Z" fill="#FEFEFE"/>
<path d="M281.874 173.809C288.077 174.004 294.356 173.521 300.509 174.105C302.29 174.274 301.697 178.996 301.414 180.135L300.746 180.51C298.124 180.894 283.814 181.053 281.419 180.405C280.036 179.127 280.514 175.289 281.874 173.809Z" fill="#FEFEFE"/>
<path d="M189.697 173.814C195.465 173.942 201.24 173.728 207 173.867C208.048 173.892 208.661 173.991 209.288 174.703C209.755 176.156 209.727 179.187 209.29 180.605C206.571 181.025 192.725 180.754 189.182 180.737C189.098 180.029 189.034 179.318 188.988 178.606C188.87 176.951 188.574 175.107 189.697 173.814Z" fill="#FEFEFE"/>
<path d="M212.961 173.781C215.924 173.898 230.705 173.182 232.113 174.453C232.41 174.72 232.504 175.44 232.527 175.813C232.63 177.46 232.925 179.459 231.809 180.737C225.574 180.91 218.63 180.755 212.34 180.75C211.915 178.168 211.223 175.904 212.961 173.781Z" fill="#FEFEFE"/>
<path d="M465.964 173.897C471.181 173.872 479.931 173.594 484.852 174.047C484.925 175.996 485.642 180.039 483.771 180.761C481.082 180.771 465.888 181.228 464.706 180.155C464.03 178.663 464.148 176.478 464.562 174.876C464.718 174.265 465.365 174.146 465.964 173.897Z" fill="#FEFEFE"/>
<path d="M258.493 173.86C261.076 173.722 276.036 173.651 277.842 174.248C278.931 175.206 278.818 179.371 278.121 180.523C274.713 181.029 262.279 180.771 258.188 180.762C258.075 178.936 257.737 175.495 258.493 173.86Z" fill="#FEFEFE"/>
<path d="M350.547 173.794C356.213 173.905 364.785 173.601 370.091 174.146C370.215 176.005 370.792 179.516 369.345 180.662C363.705 180.891 355.302 180.929 349.7 180.628C349.594 178.591 349.065 175.272 350.547 173.794Z" fill="#FEFEFE"/>
<path d="M374.125 173.878C380.138 174.059 387.289 173.518 393.162 174.166C393.207 175.805 393.382 178.248 393.016 179.846C392.898 180.365 392.531 180.41 391.967 180.71C386.875 180.821 381.805 180.775 376.658 180.813C372.223 180.847 372.302 179.993 372.704 175.745C372.806 174.669 373.322 174.449 374.125 173.878Z" fill="#FEFEFE"/>
<path d="M397.33 173.882C403.512 174.051 410.048 173.53 416.189 174.213C416.192 175.887 416.679 178.604 415.876 180.029C415.609 180.504 414.873 180.528 414.203 180.693C408.722 180.975 402.751 180.804 397.254 180.658C394.749 180.591 395.613 177.097 395.778 175.468C395.864 174.598 396.651 174.285 397.33 173.882Z" fill="#FEFEFE"/>
<path d="M235.761 173.818C238.929 173.897 252.837 173.654 254.804 174.237C255.774 175.139 255.712 179.665 255.014 180.687C249.157 181.004 241.215 180.756 235.205 180.742L235.195 180.627C235.027 178.702 234.525 175.286 235.761 173.818Z" fill="#FEFEFE"/>
<path d="M327.893 173.856C332.915 173.917 342.472 173.561 347.003 174.188C347.124 175.776 347.465 178.367 346.952 179.856C346.748 180.443 346.43 180.421 345.76 180.728C343.217 180.748 328.282 181.287 326.991 180.134C326.373 178.133 326.172 175.266 327.893 173.856Z" fill="#FEFEFE"/>
<path d="M446.22 173.917C449.814 173.713 458.253 173.75 461.72 174.075L461.793 180.575C460.222 180.773 458.186 180.75 456.57 180.775C453.658 180.792 444.047 181.081 441.771 180.301C440.79 178.873 441.338 175.922 441.548 174.174C443.014 174 444.722 173.974 446.22 173.917Z" fill="#FEFEFE"/>
<path d="M425.229 173.906C429.407 173.912 435.273 173.675 439.199 174.201C439.298 176.108 439.263 178.413 439.285 180.353C437.131 180.686 435.799 180.723 433.613 180.769C430.761 180.751 421.265 181.135 419.111 180.33C418.308 179.249 418.489 175.468 419.442 174.516C420.898 173.618 423.435 173.892 425.229 173.906Z" fill="#FEFEFE"/>
<path d="M281.583 146.633C287.137 146.587 294.34 146.31 299.929 146.805C302.335 147.018 301.7 151.534 301.11 153.4C298.04 153.503 283.455 153.608 281.421 152.871C280.019 151.488 280.768 148.211 281.583 146.633Z" fill="#FEFEFE"/>
<path d="M304.767 173.822C310.329 173.887 318.588 173.589 323.77 174.222C324.009 176.513 324.882 179.114 323.05 180.591C320.322 180.846 306.045 181.142 304.036 180.245C303.269 178.433 303.335 175.352 304.767 173.822Z" fill="#FEFEFE"/>
<path d="M282.034 164.959C287.536 164.893 293.083 164.687 298.568 164.972C302.713 165.187 302.827 169.268 300.733 171.645C296.799 171.568 292.871 171.604 288.941 171.621C286.614 171.632 282.267 172.15 280.736 170.09C280.433 168.111 280.198 165.966 282.034 164.959Z" fill="#FEFEFE"/>
<path d="M464.846 146.618C471.388 146.563 477.933 146.574 484.476 146.651C484.772 149.133 485.164 151.056 484.319 153.403C483.153 153.559 479.377 153.439 477.991 153.426L464.651 153.272C464.381 150.764 464.212 149.063 464.846 146.618Z" fill="#FEFEFE"/>
<path d="M166.303 164.92C172.253 165.017 178.267 164.795 184.211 164.961C185.431 164.994 185.842 165.144 186.514 165.927C187.06 167.669 186.799 169.882 186.123 171.562C184.348 171.848 179.982 171.619 177.882 171.586C174.02 171.554 170.158 171.55 166.296 171.575C165.945 169.186 165.594 167.258 166.303 164.92Z" fill="#FEFEFE"/>
<path d="M189.591 164.96C195.581 164.677 202.324 164.781 208.282 165.142C210.546 165.28 209.285 170.37 208.878 171.713C207.804 171.814 204.05 171.61 202.675 171.595C198.254 171.536 193.832 171.551 189.411 171.638C189.245 170.795 189.111 169.947 189.008 169.095C188.817 167.481 188.595 166.229 189.591 164.96Z" fill="#FEFEFE"/>
<path d="M212.527 164.912C218.48 165.008 224.36 164.743 230.316 165.03C234.034 165.21 232.903 170.417 231.584 171.744C225.936 171.498 218.06 171.378 212.44 171.745C212.059 169.301 211.51 167.221 212.527 164.912Z" fill="#FEFEFE"/>
<path d="M467.768 164.99C472.178 164.914 480.875 164.589 484.836 165.267C484.899 167.101 485.272 170.072 484.141 171.425C483.328 171.833 482.978 171.741 482.063 171.656C477.589 171.328 469.973 172.029 465.368 171.363C464.107 171.181 463.931 166.94 464.725 165.514C465.521 164.853 466.694 164.998 467.768 164.99Z" fill="#FEFEFE"/>
<path d="M350.448 164.892C353.721 165.002 368.367 164.346 369.852 165.749C370.304 167.252 370.537 170.689 369.217 171.679C362.994 171.437 356.257 171.591 349.976 171.573C349.635 169.659 349.008 166.385 350.448 164.892Z" fill="#FEFEFE"/>
<path d="M376.148 164.999C381.161 164.907 388.363 164.571 393.133 165.34C393.2 167.4 393.653 169.888 392.337 171.322C391.384 171.892 390.354 171.68 389.239 171.588C384.475 171.368 378.028 171.58 373.137 171.606C372.334 168.875 372.487 168.051 372.904 165.242C373.883 165.122 375.145 165.07 376.148 164.999Z" fill="#FEFEFE"/>
<path d="M258.373 164.893C264.316 165.053 271.549 164.596 277.527 165.206C279.235 165.38 278.517 170.111 278.161 171.476C276.19 171.73 260.619 171.674 258.915 171.332C257.699 170.094 257.979 166.481 258.373 164.893Z" fill="#FEFEFE"/>
<path d="M327.832 164.941C333.556 165.068 339.766 164.693 345.518 165.039C345.789 165.129 346.675 165.147 346.761 165.501C347.287 167.69 347.797 170.528 345.738 171.8C340.356 171.199 331.895 172.101 327.472 171.395C326.153 169.967 326.293 166.36 327.832 164.941Z" fill="#FEFEFE"/>
<path d="M445.06 164.981C449.508 164.905 457.57 164.665 461.71 165.181C461.777 167.064 462.111 169.512 461.321 171.127C460.355 171.788 460.531 171.584 459.192 171.647C454.017 171.356 447.029 171.538 441.717 171.523C441.379 169.561 440.56 167.186 441.816 165.551C442.701 164.877 443.916 165.003 445.06 164.981Z" fill="#FEFEFE"/>
<path d="M400.204 164.983C404.768 164.928 411.919 164.663 416.163 165.349C416.259 167.386 416.66 169.536 415.462 171.106C414.5 171.819 413.623 171.652 412.432 171.6C409.742 171.483 397.305 172.086 396.161 171.059C395.141 169.181 395.683 167.254 396.001 165.153C397.254 165.044 398.917 165.031 400.204 164.983Z" fill="#FEFEFE"/>
<path d="M305.297 164.962C311.05 164.927 317.928 164.728 323.585 164.998C324.047 167.669 325.032 169.913 322.715 171.66C318.786 171.436 314.808 171.629 310.692 171.65C305.668 171.676 302.701 172.74 303.815 165.975C303.908 165.414 304.781 165.196 305.297 164.962Z" fill="#FEFEFE"/>
<path d="M282.485 156.068C288.281 155.94 294.422 155.607 300.162 156.199C301.913 156.38 301.819 158.729 301.683 160.052C301.528 161.551 301.644 161.804 300.263 162.392C295.005 162.119 286.712 162.871 281.403 161.822C280.526 161.649 280.634 158.111 280.676 157.154C281.224 156.23 281.174 156.49 282.485 156.068Z" fill="#FEFEFE"/>
<path d="M166.4 183.281C170.062 183.57 183.845 182.937 185.933 183.736C187.099 184.894 187.104 188.218 186.348 189.484C183.756 189.943 169.455 189.706 166.177 189.631C165.934 187.29 165.638 185.513 166.4 183.281Z" fill="#FEFEFE"/>
<path d="M282.303 183.436C285.413 183.448 288.522 183.428 291.631 183.376C294.018 183.354 299.856 182.868 301.369 184.353C301.782 185.788 301.789 187.587 301.427 189.049C301.374 189.265 300.71 189.524 300.432 189.667C297.154 189.695 282.624 190.297 280.99 188.894C280.366 186.619 280.317 184.774 282.303 183.436Z" fill="#FEFEFE"/>
<path d="M468.498 156.043C472.236 155.754 481.49 155.784 484.845 156.355C484.912 158.224 485.371 160.754 483.991 162.113C482.952 162.649 482.385 162.486 481.238 162.331C478.016 162.202 467.382 162.636 465.072 162.07C464.113 161.159 463.941 157.673 464.683 156.602C465.556 155.888 467.287 156.058 468.498 156.043Z" fill="#FEFEFE"/>
<path d="M212.688 183.333C215.61 183.444 230.26 182.957 231.779 183.778C232.938 185.079 233.033 188.349 232.08 189.642C226.081 189.905 218.382 189.733 212.286 189.656C211.969 187.375 211.428 185.305 212.688 183.333Z" fill="#FEFEFE"/>
<path d="M189.543 156.007C193.499 155.86 197.589 156.003 201.561 155.935C203.577 155.901 208.153 155.574 209.463 157.112C210.035 159.08 209.521 160.488 208.916 162.367C205.734 162.331 191.829 162.481 189.671 162.067C188.662 160.804 188.666 157.307 189.543 156.007Z" fill="#FEFEFE"/>
<path d="M189.646 183.295C195.799 183.671 201.97 183.018 208.074 183.494C210.156 183.657 209.655 188.211 209.288 189.533C205.829 189.992 193.184 189.724 189.19 189.63C188.965 187.482 188.461 185.107 189.646 183.295Z" fill="#FEFEFE"/>
<path d="M235.626 183.365C238.234 183.391 253.106 183.02 254.612 183.763C255.835 185.112 256.028 188.245 255.112 189.664C248.833 189.822 241.441 189.769 235.194 189.638C234.994 187.484 234.574 185.266 235.626 183.365Z" fill="#FEFEFE"/>
<path d="M350.279 183.348C355.085 183.435 364.367 183.074 369.409 183.681C370.578 183.822 370.263 188.319 369.826 189.587C365.119 189.866 354.415 189.827 349.753 189.593C349.642 187.423 349.361 185.311 350.279 183.348Z" fill="#FEFEFE"/>
<path d="M465.135 183.378C471.343 183.573 478.299 183.426 484.568 183.419C484.784 185.182 485.218 188.008 484.526 189.632C481.403 189.723 466.92 190.176 464.842 189.156C463.829 187.849 464.192 184.723 465.135 183.378Z" fill="#FEFEFE"/>
<path d="M258.8 183.347C262.199 183.436 275.46 183.095 277.659 183.724C278.89 184.921 278.996 188.481 278.045 189.628C271.995 189.89 264.307 189.741 258.185 189.648C258.049 187.586 257.632 185.024 258.8 183.347Z" fill="#FEFEFE"/>
<path d="M374.08 183.404C376.728 183.526 391.518 182.894 392.76 183.943C393.309 185.126 393.238 187.564 393.025 188.883C392.945 189.367 392.474 189.446 391.967 189.669C386.272 189.718 380.578 189.852 374.864 189.64C371.929 189.53 372.643 187.074 372.771 184.901C372.818 184.095 373.465 183.789 374.08 183.404Z" fill="#FEFEFE"/>
<path d="M397.037 183.414C403.079 183.649 409.404 182.911 415.366 183.668C416.431 183.803 416.128 187.269 416.182 188.081C416.278 189.524 415.319 189.39 414.187 189.656C408.786 189.72 403.362 189.87 397.955 189.671C395.332 189.575 395.491 187.56 395.673 185.45C395.772 184.324 396.199 184.025 397.037 183.414Z" fill="#FEFEFE"/>
<path d="M327.775 183.473C332.478 183.408 342.618 183.147 346.99 183.562C347.099 185.307 347.762 188.856 346.089 189.676C341.306 189.704 331.025 189.987 326.669 189.446C326.66 187.306 326.194 185.009 327.775 183.473Z" fill="#FEFEFE"/>
<path d="M420.3 183.409C425.539 183.666 434.506 182.938 439.225 183.672C439.289 185.059 439.56 187.704 438.951 188.949C438.735 189.39 438.244 189.409 437.67 189.592C432.31 190.032 425.892 189.669 420.501 189.591C418.146 189.557 417.782 184.785 420.3 183.409Z" fill="#FEFEFE"/>
<path d="M445.534 156.046C450.212 155.937 457.105 155.767 461.684 156.25C461.786 158.147 462.251 160.593 461.114 161.944C460.072 162.62 458.788 162.381 457.522 162.304C452.255 162.226 446.889 162.269 441.615 162.266C441.385 160.456 440.732 158.03 442.023 156.633C443.023 155.938 444.295 156.065 445.534 156.046Z" fill="#FEFEFE"/>
<path d="M442.211 183.491C448.434 183.303 455.244 183.441 461.547 183.389C461.707 185.164 461.914 187.872 461.563 189.571C458.683 189.781 443.511 190.137 441.768 189.078C440.898 187.468 441.016 184.931 442.211 183.491Z" fill="#FEFEFE"/>
<path d="M376.317 156.034C381.222 155.952 387.882 155.386 392.572 156.564C393.739 156.857 393.232 160.772 392.442 162.009C391.432 162.534 391.849 162.422 390.645 162.341C387.06 162.235 375.964 162.755 373.382 161.798C372.407 160.658 372.548 157.792 373.265 156.614C374.084 155.943 375.228 156.061 376.317 156.034Z" fill="#FEFEFE"/>
<path d="M305.17 156.052C310.257 155.974 318.808 155.696 323.674 156.168C323.916 158.203 324.678 161.159 322.855 162.402C316.641 162.135 309.791 162.611 303.768 162.163C303.622 159.79 302.871 157.189 305.17 156.052Z" fill="#FEFEFE"/>
<path d="M305.336 183.456C310.427 183.416 318.792 183.129 323.587 183.565C324.062 186.138 325.19 188.544 322.421 189.658C318.116 189.701 313.804 189.752 309.499 189.762C307.897 189.766 304.959 190.007 303.902 188.762C303.384 186.455 303.175 184.609 305.336 183.456Z" fill="#FEFEFE"/>
<path d="M433.173 16.6587C436.978 18.5469 437.294 27.4725 433.906 30.1662C432.026 31.6596 432.243 31.4638 429.926 31.5579C428.906 34.7011 420.953 57.4557 419.245 58.6531C418.601 59.1049 417.811 57.5411 417.138 57.433C413.247 67.7516 408.697 80.1148 404.363 90.1092C403.136 90.8014 401.352 91.886 400.048 92.4168C399.095 92.8055 398.321 92.1044 397.384 91.5611C394.828 91.285 384.908 94.8351 382.283 95.9972C382.808 97.7227 384.743 101.908 385.546 103.936C389.717 103.035 394.558 100.079 398.656 98.146C401.154 93.2783 405.128 94.1614 407.285 89.8876C408.926 86.6303 416.937 62.1114 419.178 61.3449C419.286 61.4259 419.608 61.7043 419.649 61.812C422.909 70.5356 422.568 82.2525 418.483 90.648C416.096 95.5502 411.31 101.287 406.801 104.469C400.096 110.347 390.915 111.962 382.273 111.661C361.155 110.924 345.674 93.006 346.704 72.049C347.204 62.3224 351.541 53.1918 358.765 46.6607C373.51 33.3678 397.591 33.4826 411.291 48.3291C413.407 50.6208 415.191 53.0987 417.256 55.4037L417.638 55.3039C418.91 52.9963 420.076 49.4086 421.067 46.8794C423.25 41.3157 425.216 35.62 427.66 30.1599C426.679 29.4565 425.031 28.6235 425.121 27.3212C425.302 24.7056 426.373 21.5662 428.04 19.5236C428.642 18.7847 430.595 19.0663 431.488 19.108C432.377 18.652 432.73 17.5881 433.173 16.6587ZM384.784 88.1657C392.356 87.8721 398.245 81.4848 397.932 73.9135C397.617 66.3421 391.218 60.4653 383.65 60.8004C376.113 61.1342 370.266 67.5074 370.578 75.0497C370.894 82.5918 377.248 88.458 384.784 88.1657Z" fill="#FEFEFE"/>
<path d="M520.953 16.7129C521.711 16.8873 521.807 17.0018 522.352 17.5086C522.709 20.6893 525.143 21.5281 524.143 24.7C523.4 27.0444 523.193 28.7503 521.367 30.6465C520.526 31.8831 518.311 31.3304 517.721 32.45C515.809 36.0679 508.576 57.9463 507.005 58.8626C506.093 58.4596 505.584 57.2028 505.08 56.2834C503.42 62.9716 499.962 70.6679 497.483 77.19C496.036 80.9986 494.029 86.8748 492.101 90.2288C491.645 90.4874 487.158 93.1667 486.808 92.6066C485.192 90.0311 481.244 92.3939 478.825 92.9933C476.716 93.5152 472.771 94.8115 471.034 95.8904C470.362 97.5237 472.455 101.988 473.194 103.898C478.054 103.005 481.642 100.475 486.371 98.4473C488.216 94.6285 489.816 94.273 493.548 92.7401C496.562 88.2457 499.233 78.413 501.724 73.1381C503.707 68.9443 504.232 65.2432 506.861 60.8718C509.468 65.1947 510.367 72.9165 509.841 77.7932C508.534 89.8395 503.585 97.1274 494.637 104.667C494.096 105.212 493.93 105.246 493.34 105.671C484.701 111.96 473.051 112.677 462.86 110.762C454.639 109.217 444.786 101.871 440.439 94.5906C423.202 65.738 447.058 30.452 481.018 37.9502C489.501 39.8877 497.034 44.744 502.304 51.6716C503.375 53.0875 503.853 55.2102 505.622 55.5941C507.929 49.796 509.936 43.8813 512.301 38.1039C513.391 35.4373 514.509 32.7834 515.408 30.0431L512.374 27.7306C513.247 25.425 514.35 21.4605 516.023 19.7866L516.144 19.6681C517.011 18.8052 518.101 18.9252 519.34 18.8964C520.245 18.5091 520.529 17.6141 520.953 16.7129ZM473.061 88.1434C480.626 87.6776 486.374 81.1555 485.89 73.5883C485.406 66.0211 478.876 60.2842 471.311 60.7851C463.775 61.2844 458.064 67.7937 458.545 75.3364C459.027 82.8787 465.521 88.6079 473.061 88.1434Z" fill="#FEFEFE"/>
<path d="M112.408 36.7055L127.204 36.7284C128.068 40.4586 127.722 58.3416 127.651 63.5278C127.436 79.2562 128 95.568 127.653 111.202C126.087 112.108 114.672 111.775 112.285 111.666C112.115 105.844 112.183 99.7391 112.174 93.8926C112.202 87.3727 111.656 72.1516 112.694 66.5904C110.5 70.5113 107.727 76.6524 105.613 80.8997L90.2398 111.612C85.1058 111.828 79.9654 111.838 74.8311 111.642C66.8304 97.7669 60.1674 81.5724 52.5125 67.2915C53.0144 80.9986 51.7174 98.657 52.8194 111.694C47.7641 111.795 42.7072 111.799 37.6516 111.708C37.2163 108.413 37.2911 102.913 37.2819 99.5042L37.2835 80.6236C37.2899 75.4759 36.7657 39.4014 38.097 36.7438C40.8188 36.7058 51.1272 35.8922 52.9363 38.2269C54.7492 40.5667 56.8288 45.0461 58.3673 47.8346C64.384 58.7401 70.0065 69.8861 76.0172 80.7996C78.1717 84.6905 79.9702 89.0411 82.4567 92.6594C85.3805 88.0282 88.5117 81.3904 91.2554 76.3514C98.4027 63.2266 105.15 49.765 112.408 36.7055Z" fill="#FEFEFE"/>
<path d="M599.412 36.8519C603.729 36.3921 609.516 36.9096 614.417 36.5181C614.013 55.3795 614.561 74.4076 614.344 93.2866C614.274 99.37 614.29 105.657 614.497 111.731C609.453 111.767 604.408 111.764 599.364 111.72C599.224 105.672 599.179 99.6228 599.23 93.5735C599.303 85.3097 598.64 74.721 599.558 66.8704C597.57 70.1667 594.303 77.2419 592.43 80.9339C587.27 91.1211 582.181 101.343 577.162 111.6C574.285 111.81 564.518 112.119 562.134 111.385C560.079 110.024 541.759 71.8641 539.503 67.061L539.496 96.0817C539.496 100.407 539.321 107.553 539.754 111.689C534.586 111.774 529.417 111.785 524.248 111.724C523.522 96.7416 524.376 79.6544 524.057 64.4703C523.952 59.4754 523.757 40.6544 524.36 36.7113C527.76 36.7243 536.004 36.2525 538.725 37.3569L538.894 37.4264C540.65 38.1386 544.926 47.3105 546.191 49.6343L562.975 81.1306C564.9 84.7409 567.214 89.7017 569.358 92.9645C575.228 81.6123 581.19 70.3095 587.248 59.0567C590.524 52.8413 595.737 42.3212 599.412 36.8519Z" fill="#FEFEFE"/>
<path d="M260.91 36.583C263.612 36.9277 271.889 36.751 275.014 36.7469L302.56 36.7077C308.344 36.701 315.311 36.3391 320.796 38.0808C336.408 43.116 341.468 63.4551 329.878 75.1443C323.97 81.1015 318.45 82.1271 310.494 82.2317C316.154 91.6445 321.37 102.167 326.921 111.652C321.979 111.722 316.871 111.865 311.944 111.657C310.834 110.335 307.343 103.529 306.33 101.697C301.945 93.7708 297.863 85.82 293.211 78.0306C291.159 74.4448 289.296 70.7532 287.631 66.9714C293.323 66.8859 312.853 67.8226 316.879 66.0264C318.738 65.1978 320.465 62.7355 321.166 60.8621C320.465 56.5029 320.293 56.0218 317.334 52.7826C312.962 51.3049 283.088 52.0745 276.182 51.909C276.431 57.3408 276.177 63.8313 276.232 69.3494C276.372 83.4113 276.016 97.6384 276.312 111.692C271.192 111.789 266.071 111.784 260.951 111.68C260.18 92.953 261.069 73.7712 260.734 54.9961C260.63 49.1442 260.539 42.4063 260.91 36.583Z" fill="#FEFEFE"/>
<path d="M176.388 36.7848C179.346 36.7621 191.832 36.3107 193.75 37.2843C198.539 39.7157 209.22 59.1372 213.034 61.3782C214.408 60.3213 215.686 57.7848 216.884 56.3941C219.523 53.3334 229.542 37.5745 232.846 36.9646C236.692 36.2546 247.072 36.7459 251.167 36.8865C247.975 39.9443 223.829 72.0947 222.911 74.7629C225.601 79.5912 234.76 90.6835 238.516 95.7394C241.353 99.5576 247.307 107.908 250.093 111.151L249.828 111.687C244.802 111.715 236.386 112.025 231.728 111.553C229.475 109.589 224.353 102.321 222.267 99.5018C219.376 95.5931 215.782 91.0358 213.035 87.0869C211.939 88.9524 207.257 94.9937 205.707 96.9614C202.233 101.373 198.202 107.422 194.611 111.538C189.892 112.015 181.023 111.767 175.894 111.784C179.481 106.004 185.849 97.7907 190.055 92.1664C193.801 87.1577 199.649 78.9895 203.694 74.4087C201.871 72.4362 199.494 69.0637 197.832 66.8466L188.396 54.2335C184.57 49.0514 180.317 43.7012 176.718 38.3243C176.247 37.6207 176.208 37.569 176.388 36.7848Z" fill="#FEFEFE"/>
<path d="M150.179 36.4253C152.186 36.966 162.709 36.7027 165.329 36.673C165.323 43.6026 165.691 110.904 165.041 111.701C160.037 111.748 155.033 111.754 150.029 111.719C149.679 106.449 149.837 100.019 149.834 94.6572L149.819 66.5653C149.818 62.8383 149.57 38.5362 150.179 36.4253Z" fill="#FEFEFE"/>
<path d="M125.124 170.737C137.071 170.262 137.313 172.22 137.092 184.063C137 189.007 137.811 195.486 135.772 200C132.063 201.941 123.078 201.223 118.552 201.209C115.62 201.248 109.794 201.711 107.527 199.833C106 197.349 105.77 175.316 107.39 172.642C109.002 169.981 121.498 170.714 125.124 170.737Z" fill="#FEFEFE"/>
<path d="M89.5762 170.733C95.3338 170.59 102.996 169.395 102.436 177.665C101.988 184.28 103.842 194.256 100.837 200.096C99.9675 201.787 87.1132 201.213 84.7793 201.189C82.6391 201.232 80.4987 201.255 78.3579 201.257C70.9591 201.225 71.8316 195.94 71.7749 190.121C71.7223 184.728 71.7016 179.189 72.0302 173.815C73.3163 172.531 73.8934 172.014 75.3679 170.958C79.811 170.63 85.0645 170.741 89.5762 170.733Z" fill="#FEFEFE"/>
<path d="M55.0393 170.731C58.0166 170.658 67.2764 169.791 67.4188 174.554C67.6148 181.105 68.8079 194.287 66.6518 200.224C62.6971 201.762 55.1356 201.237 50.5777 201.188C40.0822 201.394 36.581 202.568 37.2256 189.755C37.5459 183.391 35.1849 174.606 40.9257 170.866C45.3156 170.63 50.5853 170.746 55.0393 170.731Z" fill="#FEFEFE"/>
<path d="M111.789 136.904C117.228 136.867 129.865 136.397 134.508 137.708C138.622 138.871 136.93 160.409 136.552 164.294C136.432 165.523 133.251 166.694 132.188 167.064C126.081 166.993 116.185 167.719 110.653 166.727C109.599 166.537 107.949 166.223 107.331 165.265C105.621 162.618 106.239 141.931 107.135 138.28C108.968 137.427 109.801 137.117 111.789 136.904Z" fill="#FEFEFE"/>
<path d="M76.4624 136.945C79.3266 136.92 99.556 136.176 100.944 138.157C103.217 141.398 102.93 160.159 101.639 164.899C101.425 165.687 99.1176 166.6 98.1322 166.999C92.1216 167.441 85.6441 167.168 79.6134 167.026C77.84 166.984 74.2636 166.825 73.0036 165.409C70.99 163.146 71.8169 143.069 72.1694 139.264C73.6875 137.818 74.3395 137.226 76.4624 136.945Z" fill="#FEFEFE"/>
<path d="M42.8089 136.91C46.8541 136.898 64.018 136.078 66.4488 138.252C68.6657 142.341 67.5077 153.246 67.7623 158.337C68.0054 163.199 68.0504 165.48 63.424 167.055C59.5073 167.021 41.4623 167.797 39.2574 165.976C38.0427 164.973 37.5695 162.624 37.3846 161.129C36.9277 157.43 36.5832 140.941 38.7804 138.266C39.7708 137.06 41.3801 137.052 42.8089 136.91Z" fill="#FEFEFE"/>
<path d="M532.523 136.817C534.171 136.742 535.238 136.505 536.456 137.615C537.096 139.153 537.042 166.576 536.551 169.246C538.705 169.279 540.853 169.39 542.998 169.578C543.546 176.382 544.272 177.928 536.87 177.373C536.94 181.417 536.816 186.329 536.848 190.37C536.87 193.191 537.192 202.462 536.621 204.733C536.06 205.398 535.041 205.447 534.155 205.6C533.183 205.55 532.963 205.496 532.026 205.217C530.863 203.645 531.306 181.365 531.198 177.382C529.843 177.49 525.965 177.629 524.862 176.994C523.715 176.33 524.327 171.019 524.996 169.871C526.14 169.321 529.837 169.323 531.287 169.241C531.666 158.933 531.01 148.513 531.695 138.223C531.723 137.767 532.217 137.147 532.523 136.817Z" fill="#FEFEFE"/>
<path d="M567.625 136.748C568.488 136.744 571.442 136.64 571.63 137.581C572.691 142.911 572.793 155.371 571.971 160.511C574.167 160.554 576.362 160.616 578.555 160.695C579.132 167.615 579.887 169.234 572.268 168.58C572.577 173.623 572.207 180.016 572.293 185.188C572.341 188.173 572.8 203.463 571.573 205.329C571.066 205.385 570.556 205.434 570.046 205.476C568.788 205.574 568.322 205.588 567.405 204.799C566.72 202.248 566.917 193.236 566.917 190.085L566.879 168.582C565.136 168.67 562.297 168.956 560.713 168.502C559.578 167.586 559.594 162.421 560.34 161.305C560.853 160.537 565.901 160.567 566.971 160.481C566.93 156.256 566.528 139.671 567.625 136.748Z" fill="#FEFEFE"/>
<path d="M603.372 136.814C604.704 136.735 606.071 136.525 607.282 137.03C608.337 138.517 607.98 165.589 607.754 169.33C609.819 169.336 612.021 169.431 614.095 169.482C614.723 176.381 615.431 177.92 607.92 177.341C607.878 183.412 607.888 189.484 607.939 195.555C607.955 198.272 608.047 201.482 607.84 204.204C607.783 204.991 607.502 205.07 606.98 205.424C605.753 205.581 604.207 205.695 603.127 205.062C602.27 203.571 602.531 181.26 602.448 177.34C600.718 177.427 598.286 177.657 596.658 177.295C595.39 176.012 595.533 171.003 596.531 169.563C597.541 169.177 601.205 169.341 602.585 169.307C602.572 164.84 602.063 139.254 603.372 136.814Z" fill="#FEFEFE"/>
</svg>
