<svg width="1034" height="360" viewBox="0 0 1034 360" fill="none" xmlns="http://www.w3.org/2000/svg">
<g clip-path="url(#clip0_13_73)">
<path d="M29.3841 0H1003.62C1020.2 3.99068 1032.28 14.3246 1033.13 32.3815C1033.47 39.8325 1033.28 47.327 1033.28 54.7897L1033.24 95.1097L1033.24 219.746L1033.25 295.66C1033.25 303.172 1033.88 327.154 1032.36 333.397C1030.26 342.189 1024.71 349.764 1016.96 354.41C1011.89 357.481 1007.21 358.832 1001.49 360H31.8835C13.24 355.941 4.81123 348.566 0 330.063V29.4929C4.20297 11.8566 12.3472 4.62689 29.3841 0ZM1001.57 349.315C1026.9 343.813 1023.02 323.82 1023.02 303.394L1023.01 260.788L1023 129.514L1023.04 61.6115C1023.04 59.3702 1023.15 57.0209 1023.05 54.7937C1022.39 39.7949 1026.75 23.2599 1011.72 13.8461C1008.38 11.7528 1004.55 10.5598 1000.61 10.3831C988.177 9.86036 972.47 10.3388 959.732 10.3452L880.031 10.3571L635.562 10.3558L230.734 10.364L97.4727 10.3669C76.5291 10.3653 55.0383 10.0796 34.1488 10.3176C31.0178 10.49 28.9622 10.6307 26.0097 11.6929C8.62027 17.949 10.327 34.1378 10.3887 48.793L10.4393 75.2647L10.4484 164.082L10.4278 271.988L10.4001 307.333C10.3977 314.193 10.2885 321.152 10.6023 327.957C11.1221 339.231 21.7441 348.973 32.9311 349.228C46.072 349.527 59.3278 349.362 72.4916 349.349L147.664 349.341L382.685 349.339L793.817 349.346L930.529 349.35C954.022 349.35 978.115 349.631 1001.57 349.315Z" fill="#FEFEFE"/>
<path d="M262.594 214.224C267.285 213.806 279.513 214.139 284.719 214.142L329.767 214.164L473.77 214.167L673.504 214.151L739.159 214.142C749.453 214.143 763.252 213.754 773.279 214.246C778.115 214.485 782.801 216.02 786.84 218.689C802.784 229.071 797.508 255.498 798.013 272.35C798.639 293.192 801.466 316.36 775.419 321.581C739.643 322.223 701.984 321.624 666.087 321.625L451.179 321.625L325.657 321.633L284.828 321.657C277.221 321.658 269.445 321.997 261.866 321.448C257.672 321.143 253.295 319.463 249.88 317.023C244.366 313.083 240.803 307.513 239.693 300.847C238.281 292.368 238.217 242.943 239.658 234.528C240.281 230.987 241.715 227.638 243.847 224.743C248.676 218.099 254.782 215.498 262.594 214.224ZM776.409 315.693C782.377 313.639 787.148 310.865 790.026 304.924C791.005 302.869 791.626 300.664 791.868 298.401C792.686 290.299 792.898 238.722 790.879 233.015C789.021 227.76 785.153 223.857 780.145 221.506C778.196 220.591 776.379 220.133 774.228 220.051C763.509 219.643 752.684 219.918 741.956 219.92L684.747 219.934L512.153 219.939L347.379 219.936L293.8 219.933C283.232 219.929 271.469 219.694 260.992 220.137C240.892 225.926 245.313 241.987 244.94 258.659C244.776 265.957 244.812 273.417 244.851 280.704C244.913 292.263 242.67 306.649 254.663 313.325C257.409 314.853 260.343 315.883 263.449 315.926C277.91 316.167 292.413 316.078 306.877 316.079L382.186 316.073L608.237 316.053L723.416 316.056L757.36 316.082C761.934 316.082 772.122 316.289 776.409 315.693Z" fill="#FEFEFE"/>
<path d="M560.96 244.5C567.917 244.655 577.884 243.966 584.437 245.323C605.304 249.643 602.593 274.329 587.381 284.162C577.465 289.378 563.414 287.93 552.034 287.878L557.522 259.832C558.203 256.376 559.718 247.416 560.96 244.5ZM561.52 280.849C569.018 280.934 576.546 281.866 583.044 278.235C593.005 270.743 595.605 253.663 579.868 251.639C575.677 251.1 571.34 251.751 567.17 251.379C566.711 256.127 562.884 275.922 561.52 280.849Z" fill="#FEFEFE"/>
<path d="M710.405 254.57C716.656 253.834 720.22 255.693 724.911 259.337C724.971 258.197 725.673 256.563 726.087 255.436C727.667 254.498 731.191 254.89 733.201 254.965C732.03 259.864 731.368 265.01 730.278 269.978C728.001 280.342 727.783 294.352 716.07 298.806C708.073 301.848 699.116 300.334 691.937 295.892C692.492 294.587 694.603 291.413 695.476 290.047C706.185 295.367 715.893 296.827 719.902 282.961C713.728 286.371 707.164 288.209 700.686 284.207C697.642 282.297 695.501 279.24 694.744 275.728C692.225 264.562 700.121 256.851 710.405 254.57ZM712.354 279.864C724.391 277.792 726.042 260.495 713.142 261.15C706.927 261.88 701.474 266.114 702.267 272.905C702.499 275.004 703.584 276.916 705.271 278.19C707.285 279.739 709.911 279.831 712.354 279.864Z" fill="#FEFEFE"/>
<path d="M512.224 254.574C536.383 252.424 537.049 283.627 513.587 288.282C489.571 290.366 488.079 258.801 512.224 254.574ZM513.107 281.867C525.694 277.496 526.386 260.829 513.461 261.145C500.85 262.88 497.319 281.286 513.107 281.867Z" fill="#FEFEFE"/>
<path d="M430.324 254.586C454.322 252.096 455.685 283.411 431.924 288.297C407.576 290.355 406.781 258.779 430.324 254.586ZM431.19 281.872C444.165 278.142 444.532 260.367 431.545 261.14C418.937 263.425 416.114 281.186 431.19 281.872Z" fill="#FEFEFE"/>
<path d="M673.685 254.536C695.779 252.628 686.141 275.576 684.364 287.892L676.23 287.873C677.77 278.024 686.939 257.189 668.717 262.245C668.218 262.536 667.728 262.847 667.258 263.179C662.209 266.767 660.69 281.619 659.604 287.878L651.637 287.856C652.92 279.455 656.08 263.082 658.095 254.99C659.73 254.947 664.426 254.649 665.521 255.424L665.112 257.508C666.057 257.646 670.192 255.224 673.685 254.536Z" fill="#FEFEFE"/>
<path d="M341.807 254.607C362.956 251.312 354.245 277.039 351.992 287.86L344.025 287.896C344.361 286.199 344.79 284.435 345.055 282.731C346.511 273.356 353.616 257.919 336.522 262.217C336.094 262.478 335.674 262.753 335.263 263.042C329.965 266.756 328.615 281.227 327.412 287.893L319.4 287.875C321.461 277.344 323.459 265.176 325.921 254.872C327.511 254.884 331.978 254.699 333.018 255.578L333.005 257.341C334.412 257.503 337.764 255.157 341.571 254.637L341.807 254.607Z" fill="#FEFEFE"/>
<path d="M608.985 244.52C616.058 244.706 625.035 244.998 632.038 244.379C629.725 255.116 628.387 266.536 625.363 277.05C622.172 288.166 612.418 290.461 602.477 287.058C600.164 285.864 597.973 284.964 597.499 282.294C598.024 280.279 600.371 278.369 601.957 276.832C618.244 295.903 620.365 260.523 622.591 251.557L607.172 251.537C607.637 249.01 607.919 246.866 608.985 244.52Z" fill="#FEFEFE"/>
<path d="M370.73 247.48L378.431 247.501C377.99 250.041 377.527 252.577 377.042 255.109L386.068 255.031C385.493 256.903 385.014 259.478 384.591 261.455L375.563 261.474C374.631 267.221 372.366 274.113 373.227 279.92C373.859 284.191 380.338 278.67 381.295 283.065C381.44 283.731 381.643 284.485 381.809 285.158L381.832 286.137C380.796 287.463 378.798 287.713 377.145 287.992C356.595 291.464 368.034 270.27 367.205 261.933C366.835 261.868 366.467 261.797 366.1 261.72C363.877 261.251 363.536 261.095 362.507 259.527C362.462 257.779 363.023 257.163 363.987 255.661C365.321 254.643 367.447 254.989 369.211 255.055C369.586 251.863 369.724 250.505 370.73 247.48Z" fill="#FEFEFE"/>
<path d="M478.819 247.474L486.446 247.519C486.011 250.259 485.668 252.471 484.95 255.148L494.116 255.048C493.549 256.845 493.005 259.557 492.572 261.466C489.674 261.505 486.671 261.455 483.763 261.447C482.799 265.994 480.516 274.672 481.15 279.16C481.728 283.254 486.873 280.458 488.891 281.869C489.198 282.083 489.622 284.112 489.763 284.654L489.849 286.02C487.712 289.325 481.358 288.188 478.195 287.523C466.625 285.091 477.041 264.75 475.308 261.45C473.463 261.645 472.312 262.046 471.168 260.537C470.874 258.75 471.321 257.511 471.768 255.777C473.063 254.61 474.488 254.993 476.608 254.966C477.353 254.114 478.158 249.477 478.819 247.474Z" fill="#FEFEFE"/>
<path d="M309.534 244.593L317.355 244.572C315.608 256.715 311.308 275.538 308.747 287.777L300.624 287.834C301.244 282.37 307.773 248.255 309.534 244.593Z" fill="#FEFEFE"/>
<path d="M410.463 254.595C412.021 254.425 411.927 254.176 413.037 254.82C413.695 256.541 412.621 259.733 412.14 261.663C396.772 262.435 398.005 275.353 395.585 287.854C393.165 287.9 390.122 288.073 387.807 287.599C389.661 276.859 392.043 265.639 394.154 254.906C395.971 254.902 400.461 254.602 401.592 255.565L401.069 257.778C401.787 258.248 402.27 257.83 403.058 257.336C405.756 255.645 407.384 255.178 410.463 254.595Z" fill="#FEFEFE"/>
<path d="M640.247 254.936L648.103 254.977C646.422 265.322 643.726 277.475 641.55 287.842L633.774 287.885C635.446 278.066 637.985 264.579 640.247 254.936Z" fill="#FEFEFE"/>
<path d="M643.933 240.574C645.488 239.746 647.371 239.817 648.86 240.762C650.35 241.707 651.218 243.379 651.132 245.141C651.046 246.902 650.022 248.483 648.446 249.279C646.048 250.492 643.12 249.547 641.883 247.161C640.646 244.775 641.56 241.836 643.933 240.574Z" fill="#FEFEFE"/>
<path d="M686.222 26.8896C691.482 27.7079 689.549 28.9991 688.923 31.8486C688.711 32.804 691.654 33.5166 692.457 35.5405C692.447 38.5277 688.948 46.5499 686.933 49.037C684.586 50.0665 685.005 49.2564 682.309 49.4347C679.941 54.2514 677.548 60.9985 675.569 66.1137L664.35 95.039L661.518 89.7344C660.942 91.6647 660.185 93.7323 659.407 95.6125C653.041 111.081 648.057 127.526 640.686 142.479C639.949 143.973 634.042 146.395 632.275 147.183C630.836 145.591 630.902 145.191 629.013 144.557C624.358 145.436 610.858 149.769 607.132 152.311C605.753 154.674 609.696 163.068 612.029 164.688C614.473 164.88 628.927 157.878 630.932 155.873C636.299 150.514 636.299 149.932 643.463 146.629C646.063 142.948 647.411 137.62 649.188 133.685C653.682 123.729 659.377 104.145 664.582 95.2995C673.736 121.707 668.086 145.596 647.053 164.026C632.169 176.195 613.635 180.264 594.959 175.816C579.691 172.073 566.524 162.43 558.35 149C550.105 135.582 547.778 118.767 551.438 103.512C555.245 88.2474 564.939 75.1087 578.394 66.9625C608.096 48.9759 644.044 60.2311 661.73 89.5047C663.911 83.0948 677.543 50.8024 677.341 47.3996C671.146 43.7452 675.311 37.2756 677.603 32.2176C679.87 27.2221 683.117 33.6474 686.222 26.8896ZM614.175 139.341C625.933 136.617 633.264 124.891 630.563 113.13C627.862 101.37 616.154 94.014 604.39 96.689C592.586 99.3716 585.205 111.124 587.916 122.92C590.622 134.715 602.386 142.072 614.175 139.341Z" fill="#FEFEFE"/>
<path d="M608.843 115.415C609.797 115.253 610.767 115.62 611.378 116.374C611.989 117.127 612.145 118.151 611.787 119.053C611.428 119.953 610.61 120.592 609.651 120.721C608.197 120.917 606.859 119.913 606.637 118.465C606.42 117.017 607.399 115.66 608.843 115.415Z" fill="#FEFEFE"/>
<path d="M825.564 26.9209C831.436 27.6404 827.796 30.5967 828.472 32.5141C828.699 33.1582 831.027 33.2869 831.804 35.7377C830.578 42.6602 829.219 48.5239 821.621 50.0019C819.394 53.6257 817.35 60.0684 815.673 64.2005C811.599 74.2619 808.019 85.0543 803.571 94.9273C802.652 93.0955 801.925 91.1561 801.163 89.2501C797.543 99.988 792.757 110.832 788.814 121.509C786.294 128.331 783.603 135.819 780.271 142.221C779.493 143.716 774.531 146.113 772.854 146.679C770.537 147.509 770.895 145.335 768.578 144.547C764.933 145.032 750.463 149.83 747.004 151.82C746.237 152.931 745.833 153.58 746.393 154.983C747.454 157.636 748.862 163.102 751.17 164.707C754.421 164.796 769.169 157.275 772.365 154.974C774 153.798 773.319 151.147 775.091 150.226C778.201 148.612 780.079 148.239 783.149 146.284C785.133 143.112 789.773 130.709 791.242 126.807C795.216 116.234 799.855 105.307 803.536 94.7208C814.275 119.486 806.474 145.975 786.789 163.689C772.97 176.22 752.25 180.053 734.382 175.818C719.024 172.101 705.786 162.394 697.622 148.859C689.503 135.643 687.15 118.718 690.77 103.682C694.547 88.4432 704.16 75.2989 717.539 67.0871C737.492 54.891 764.756 55.7645 783.558 69.7783C791.202 75.4762 796.16 81.4482 801.092 89.5323C805.702 76.4971 812.2 60.1108 817.536 47.3244C816.809 47.0131 816.087 46.6891 815.37 46.3523C810.15 43.8561 815.815 35.8448 817.198 32.0217C818.758 27.7172 821.813 30.9159 823.868 30.3159L825.564 26.9209ZM753.522 139.333C765.281 136.618 772.617 124.895 769.916 113.134C767.22 101.374 755.507 94.022 743.743 96.7046C731.959 99.3922 724.588 111.134 727.294 122.916C729.995 134.699 741.748 142.053 753.522 139.333Z" fill="#FEFEFE"/>
<path d="M748.176 115.391C749.13 115.219 750.104 115.58 750.72 116.333C751.331 117.086 751.488 118.113 751.129 119.014C750.766 119.916 749.943 120.551 748.983 120.672C747.545 120.854 746.222 119.856 746.005 118.424C745.788 116.992 746.752 115.646 748.176 115.391Z" fill="#FEFEFE"/>
<path d="M831.37 58.2808C835.415 58.9301 849.425 58.4726 854.858 58.7554C858.25 63.6055 867.091 81.1445 870.231 87.049L902.549 147.547L931.923 92.301C937.633 81.5838 944.085 68.6496 950.154 58.4701C958.076 58.6165 965.997 58.61 973.919 58.4514L973.954 177.472C966.023 177.547 958.086 177.582 950.154 177.576C949.669 169.048 949.967 157.929 949.977 149.201L949.957 106.376C938.481 129.555 926.415 154.684 914.388 177.43C907.481 177.78 897.773 177.518 890.689 177.52C878.733 155.173 866.192 128.943 854.959 106.048C855.953 127.594 855.13 155.531 855.12 177.404C847.87 177.738 838.615 177.526 831.219 177.552C830.78 168.654 831.047 158.266 831.042 149.201V98.6346L831.032 73.0084C831.027 69.4286 830.815 61.5359 831.37 58.2808Z" fill="#FEFEFE"/>
<path d="M178.313 58.4754C186.207 58.6132 194.104 58.6102 201.999 58.4663C202.473 97.8027 202.049 138.014 202.04 177.409C194.697 177.717 185.74 177.535 178.278 177.572C177.875 168.781 178.134 158.13 178.137 149.2L178.167 106.528C166.419 129.793 154.787 154.494 142.634 177.403C135.082 177.726 126.588 177.528 118.968 177.511C107.189 153.94 95.3835 129.56 83.2088 106.254C83.7409 116.038 83.4511 127.939 83.4663 137.917C83.4855 150.87 83.7334 164.55 83.4092 177.452C75.5568 177.673 67.4489 177.575 59.5752 177.577C58.5836 161.445 59.2571 136.636 59.2804 119.865C59.3056 101.349 58.5634 76.537 59.5363 58.5077L83.0977 58.6476C88.6242 67.1937 96.8623 83.9804 101.987 93.6231C111.427 111.386 121.763 129.867 130.707 147.745L178.313 58.4754Z" fill="#FEFEFE"/>
<path d="M414.145 58.208C416.976 58.7897 428.092 58.6064 431.588 58.6028L475.386 58.5382C483.534 58.5256 498.592 57.9919 505.837 59.6808C511.668 61.0501 517.035 63.9286 521.403 68.0285C540.871 86.2072 534.787 118.27 509.669 127.731C503.672 129.99 498.445 129.903 492.141 130.082L518.338 177.424C510.537 177.555 502.732 177.572 494.931 177.475C493.953 176.037 492.952 174.331 492.12 172.802C482.966 155.977 473.464 139.281 464.478 122.37C461.377 116.961 458.353 111.509 455.407 106.015L483.807 106.088C489.023 106.1 494.146 106.392 499.423 105.736C511.941 104.177 511.653 85.0323 500.117 82.9339C494.748 81.9574 485.358 82.5386 479.552 82.5507L437.737 82.588C438.117 93.4002 437.878 105.363 437.877 116.247L437.965 177.611L414.017 177.642C413.418 148.631 414.331 119.287 413.953 90.2369C413.82 80.0276 413.511 68.3294 414.145 58.208Z" fill="#FEFEFE"/>
<path d="M367.638 58.5225C377.547 58.5983 387.457 58.5947 397.366 58.5129C393.232 63.3111 387.721 71.3487 383.733 76.571C373.258 90.2838 363.17 104.41 352.519 118.003C367.697 137.425 382.072 157.825 397.118 177.282C389.802 177.708 374.415 177.878 367.268 177.28C357.985 164.99 347.216 149.61 337.523 138.023C334.219 143.278 326.796 152.436 322.912 157.77C319.506 162.448 311.306 173.793 307.693 177.503C298.273 177.734 287.934 177.511 278.44 177.501C282.662 170.818 290.091 161.477 295.049 154.868C304.216 142.549 313.473 130.297 322.82 118.114C313.453 104.373 300.996 89.8284 291.291 76.0535C287.189 70.2314 282.366 64.6935 278.636 58.5468C287.902 58.5336 298.859 58.2741 307.977 58.7462C309.824 60.6078 317.285 70.6545 319.036 73.1033C324.8 81.1611 332.31 90.094 337.619 98.2382C346.181 87.1837 358.837 68.4087 367.638 58.5225Z" fill="#FEFEFE"/>
<path d="M238.131 58.5373C246.063 58.6266 253.995 58.5903 261.926 58.4282C261.409 97.8788 261.988 137.973 261.89 177.481C254.566 177.782 245.396 177.554 237.937 177.563C237.002 148.79 238.246 119.41 237.734 90.5732C237.559 80.7694 237.256 68.1376 238.131 58.5373Z" fill="#FEFEFE"/>
<path d="M63.8925 271.254C74.1749 270.389 85.8443 271.45 96.2903 270.842C109.513 270.072 107.687 281.254 107.614 290.578L107.419 313.376C105.86 316.286 105.269 317.24 102.44 318.676C94.9216 319.769 78.1317 318.498 69.9157 319.018C68.288 319.074 62.803 318.412 61.8543 317.059C59.3602 313.526 58.6892 306.377 59.2259 302.039C60.4598 292.068 55.6306 278.048 63.8925 271.254Z" fill="#FEFEFE"/>
<path d="M64.3852 217.178C75.7365 216.377 91.2924 216.607 102.707 217.742C110.474 218.514 106.875 246.368 107.55 251.91C108.215 257.367 107.308 262.253 101.86 264.763C92.3724 265.458 74.9625 264.831 65.0764 264.552C62.5621 264.481 61.0191 262.031 59.6625 260.079C58.9072 250.781 58.7512 231.463 59.9907 222.066C60.3002 219.716 62.4247 218.283 64.3852 217.178Z" fill="#FEFEFE"/>
<path d="M119.461 271.21C124.2 270.932 158.947 269.37 160.71 274.103C163.285 281.017 161.805 297.988 162.12 306.165C162.344 311.955 162.427 315.951 156.865 318.815C147.314 319.54 127.912 319.28 118.855 318.149C110.657 317.125 114.686 282.226 114.728 275.402C114.738 273.771 118.061 271.881 119.461 271.21Z" fill="#FEFEFE"/>
<path d="M118.834 217.201C129.892 216.504 146.66 216.46 157.665 217.805C165.161 218.722 161.739 254.259 161.411 260.607C161.336 262.053 158.207 263.888 156.936 264.529C156.19 264.637 155.441 264.723 154.691 264.787C147.156 265.376 138.526 264.494 130.856 264.927C127.03 265.143 119.25 265.297 116.291 262.804C112.222 256.379 114.407 230.547 114.486 222.018C114.504 220.131 117.309 218.205 118.834 217.201Z" fill="#FEFEFE"/>
<path d="M173.513 217.206C185.098 216.329 200.506 216.704 212.197 217.645C219.379 218.223 216.682 243.981 217.09 248.888C217.549 254.428 217.429 261.512 211.978 264.455C202.937 266.177 184.661 264.463 174.981 264.487C171.133 264.496 169.302 260.353 169.187 256.829C168.81 245.298 168.6 233.303 169.319 221.78C169.438 219.896 172.103 218.135 173.513 217.206Z" fill="#FEFEFE"/>
<path d="M173.48 271.268C184.705 270.265 199.531 271.099 211.168 271.506C219.89 271.81 216.44 295.835 217.073 301.893C217.633 307.26 217.457 315.263 212.481 318.395C203.95 320.424 188.272 317.902 178.989 319.08C173.894 319.727 169.363 317.129 169.158 311.344C168.742 299.592 168.821 287.476 169.152 275.655C170.805 273.366 171.196 272.916 173.48 271.268Z" fill="#FEFEFE"/>
<path d="M955.905 216.502C958.727 216.381 960.949 215.879 962.983 217.717C963.66 221.196 963.417 231.341 963.412 235.441L963.322 268.595C965.952 268.543 969.723 268.353 972.228 269.001C974.924 269.698 974.065 278.363 973.283 280.403C971.48 281.805 965.866 281.357 963.392 281.291C963.387 286.902 963.948 323.559 962.665 325.783C960.575 325.857 957.768 325.721 955.622 325.679C955.102 321.14 955.279 313.532 955.274 308.849L955.289 281.319C952.628 281.362 947.766 281.667 945.423 280.911C943.535 278.839 943.384 271.02 945.353 268.963C947.534 268.269 952.86 268.547 955.39 268.575C955.163 262.4 954.824 220.496 955.905 216.502Z" fill="#FEFEFE"/>
<path d="M843.26 216.529C845.27 216.447 848.779 215.966 850.167 217.612C851.424 223.529 851.096 261.885 850.379 268.613C852.131 268.549 853.883 268.509 855.63 268.494C863.021 268.486 861.098 275.357 860.835 280.804C856.953 281.369 854.479 281.406 850.581 281.277C850.611 293.497 850.869 312.07 850.45 324.674C850.137 325.119 849.874 325.491 849.667 325.791C847.638 325.836 845.174 326.091 843.407 325.222C842.119 322.563 842.559 287.071 842.523 281.35C838.964 281.418 835.324 281.238 831.759 281.108C830.229 268.704 830.128 268.348 842.649 268.573L842.559 236.85C842.548 232.339 842.261 220.435 843.26 216.529Z" fill="#FEFEFE"/>
<path d="M900.928 216.297L906.775 216.711C907.113 228.988 906.876 242.169 906.835 254.51C918.892 254.117 917.917 255.296 917.231 266.734C914.06 267.144 910.026 267.042 906.765 267.05C907.38 280.431 906.931 310.483 906.527 325.17C906.522 325.409 905.285 325.726 904.871 325.864C903.054 325.895 901.756 326.014 899.989 325.469C899.807 325.228 899.58 324.938 899.323 324.597C898.777 307.92 898.984 282.998 899.161 267.04C895.743 267.012 891.275 268.02 888.816 266.072C887.422 264.113 887.559 262.986 887.433 260.777C886.963 252.644 893.234 254.4 899.206 254.478C899.03 249.336 898.479 219.867 899.62 216.822L900.928 216.297Z" fill="#FEFEFE"/>
</g>
<defs>
<clipPath id="clip0_13_73">
<rect width="1034" height="360" fill="white"/>
</clipPath>
</defs>
</svg>
