<svg width="1153" height="335" viewBox="0 0 1153 335" fill="none" xmlns="http://www.w3.org/2000/svg">
<g clip-path="url(#clip0_13_108)">
<path d="M168.439 13.4368C170.286 13.1703 192.88 25.7208 196.089 27.4311L245.268 53.6321C275.674 69.8318 308.581 86.5109 338.322 103.385L169.814 193.213C166.633 193.183 17.037 112.017 0 103.468C5.35816 100 14.2654 95.575 20.1437 92.4508L55.2686 73.755L168.439 13.4368Z" fill="#FEFEFE"/>
<path d="M169.323 202.457C176.448 198.077 186.561 193.056 194.201 188.992L239.026 165.151C245.937 161.473 254.054 157.419 260.569 153.375L260.58 249.773C260.581 262.994 260.523 275.501 260.656 289.561C260.909 316.301 217.1 334.949 203.46 309.153C198.28 299.355 212.051 283.253 221.007 278.956C231.385 273.977 239.311 273.613 250.526 277.078C249.875 270.2 250.132 260.681 250.131 253.571L250.143 215.357C250.093 210.191 250.109 205.024 250.19 199.858C224.36 214.481 195.544 228.812 169.243 243.107C143.349 229.471 113.896 212.575 87.9641 199.957C88.7455 227.999 87.3071 256.416 88.33 284.484C88.4449 287.632 88.9656 293.394 88.151 296.21C83.3707 312.725 63.6261 324.589 46.7873 320.632C21.6201 314.418 30.3284 290.106 47.4776 280.068C58.0919 273.856 66.5018 273.726 78.114 276.643C77.3107 245.016 78.3466 213.017 77.9108 181.357C77.7864 172.307 77.7543 162.749 78.1073 153.738C107.922 170.209 139.205 186.393 169.323 202.457Z" fill="#FEFEFE"/>
<path d="M391.82 125.801C431.704 125.958 422.324 119.684 429.192 157.894C429.858 153.05 431.905 124.743 437.855 125.884C446.484 127.539 473.453 120.629 473.487 133.261C473.514 143.223 479.793 202.811 476.262 207.565C475.016 208.156 473.814 208.398 472.455 208.533C469.027 208.873 454.025 209.266 451.921 207.433C449.141 205.011 448.299 166.482 447.832 160.057C444.186 165.653 444.062 200.142 439.755 206.642C439.006 207.772 437.922 208.171 436.619 208.397C433.65 208.913 421.442 209.375 419.225 207.699C416.458 205.606 411.695 164.657 410.664 157.899C409.445 166.823 409.463 202.494 406.471 207.088C403.81 209.338 384.148 209.361 381.499 207.15C380.084 199.822 383.855 131.828 385.951 128.896C387.371 126.909 389.547 126.243 391.82 125.801Z" fill="#FEFEFE"/>
<path d="M486.583 125.732C491.496 125.856 506.039 124.089 509.343 127.382C511.79 129.82 510.77 178.592 510.777 185.14L518.575 185.092L518.474 150.95C518.453 145.61 517.578 130.759 520.395 126.852C522.022 125.885 523.59 125.833 525.455 125.718C550.493 124.166 545.996 127.88 545.792 151.735L545.859 178.692C545.871 186.666 547.049 200.595 541.731 206.716C539.166 209.668 524.995 208.515 520.747 208.488C510.333 208.422 499.638 208.909 489.277 208.412C482.407 201.77 483.588 192.365 483.567 183.419C483.526 165.637 483.362 147.818 483.719 130.046C483.761 127.971 485.115 126.955 486.583 125.732Z" fill="#FEFEFE"/>
<path d="M559.093 125.729C566.327 125.767 605.184 124.771 608.984 126.799C611.248 128.006 612.571 131.286 613.252 133.615C614.935 139.391 615.819 150.834 612.863 156.192C610.02 158.322 590.834 158.379 587.985 155.99C586.904 153.947 587.084 151.647 587.033 149.3L579.332 149.366C579.349 150.336 579.343 153.825 579.799 154.395C585.35 162.05 609.198 164.042 612.278 172.677C615.155 180.747 617.041 204.087 607.312 208.705C591.278 208.622 573.724 209.71 558.15 207.804C551.249 206.959 551.216 184.926 552.673 179.783C553.944 175.295 573.105 176.93 577.007 177.649C579.095 178.036 579.337 182.619 580.052 184.493C582.608 186.179 583.892 185.62 586.988 184.988C592.534 174.885 556.986 170.164 554.664 162.961C551.556 153.316 548.555 131.521 559.093 125.729Z" fill="#FEFEFE"/>
<path d="M661.033 125.729C672.495 125.877 698.764 125.071 710.013 126.445C717.529 127.362 717.202 151.178 715.744 157.215C714.505 162.36 694.401 160.951 690.657 159.683C688.506 157.346 689.013 152.593 689.036 149.383C686.097 149.633 684.363 149.565 681.396 149.407L681.317 185.161L689.024 185.065C689.008 184.154 689.002 183.243 689.008 182.332C689.053 173.373 691.017 173.854 699.091 173.998C701.99 173.947 713.931 173.147 715.034 175.737C718.103 182.929 716.189 194.146 715.029 201.836C714.387 206.076 711.217 208.406 707.023 208.708C695.054 208.563 683.062 208.65 671.082 208.817C659.873 209.436 655.228 208.231 654.361 195.618C653.511 183.19 654.316 169.713 654.063 157.176C653.905 149.3 653.77 140.881 655.059 133.145C655.594 129.917 658.313 127.293 661.033 125.729Z" fill="#FEFEFE"/>
<path d="M623.375 125.72C627.788 125.776 644.689 124.612 646.953 127.703C649.559 139.104 647.532 189.697 647.589 204.305C647.594 205.808 646.581 207.554 645.179 208.535C641.086 208.593 623.836 209.52 621.573 207.155C620.047 201.497 620.413 193.521 620.43 187.524C620.475 168.767 620.301 149.999 620.475 131.245C620.498 128.376 621.37 127.522 623.375 125.72Z" fill="#FEFEFE"/>
<path d="M660.915 0H711.28C714.173 2.59201 715.541 4.65361 716.532 8.43491C718.12 14.4973 717.973 63.2818 717.213 70.2036C716.864 73.3504 716.132 76.5652 714.505 79.3145C713.481 81.0492 712.287 81.521 710.39 81.9996C704.265 83.5445 672.371 83.3424 665.295 82.5491C662.908 82.2811 660.723 81.8464 658.634 80.6162C652.295 72.5751 656.124 26.5904 655.302 14.4308C654.924 8.84282 656.827 3.98036 660.915 0ZM682.342 59.1019L690.162 59.0461C690.055 47.1963 690.066 35.3456 690.184 23.4957C687.814 23.5309 684.712 23.6685 682.404 23.5671L682.342 59.1019Z" fill="#FEFEFE"/>
<path d="M1092.83 0H1144.38C1152.45 6.68373 1150.61 16.4438 1153 24.9913V57.8238C1152.08 61.8731 1150.25 81.8779 1143.96 82.2321C1127.81 83.1436 1110.98 83.0834 1094.82 82.2591C1092.92 81.9928 1091.81 81.8014 1091.68 79.6821C1090.14 54.6879 1091.09 29.171 1091.24 4.09035C1091.25 2.67039 1092.07 1.15312 1092.83 0ZM1115.58 59.1678L1124.95 59.1261C1126.31 53.112 1126.04 29.9582 1125.14 23.614L1115.52 23.5506C1115.6 35.4229 1115.62 47.2955 1115.58 59.1678Z" fill="#FEFEFE"/>
<path d="M783.803 275.666C782.998 254.893 779.519 249.916 801.645 251.66C804.775 251.907 807.122 251.427 809.859 253.33C813.653 262.724 809.678 316.879 810.804 330.269C810.968 332.221 809.194 334.047 807.426 335H787.148C783.252 331.967 778.202 316.097 776.13 310.502C775.601 317.506 778.331 330.397 773 335H751.809C750.998 334.186 749.208 332.378 749.106 331.347C748.504 325.398 748.724 317.856 748.712 311.911L748.707 265.985C748.712 262.983 748.594 255.414 750.024 253.056C753.351 250.586 758.041 252.091 761.655 251.66C780.037 249.469 777.211 262.356 783.803 275.666Z" fill="#FEFEFE"/>
<path d="M649.857 335C646.277 331.454 646.784 328.575 646.761 323.827C646.716 315.77 645.601 255.526 648.14 253.02C650.601 250.593 661.342 251.55 665.007 251.672C667.969 251.772 671.116 252.384 673.216 254.664C676.644 258.376 679.29 270.508 681.863 275.85C681.587 269.778 678.395 250.649 687.938 251.646C692.115 252.082 704.434 250.631 707.395 253.151C708.498 255.133 708.774 257.427 708.921 259.659C709.455 267.591 709.602 327.45 708.51 331.355C708.042 333.018 706.995 334.123 705.548 335H685.151C681.165 331.823 676.132 315.906 674.1 310.357C673.649 317.457 676.222 330.264 671.037 335H649.857Z" fill="#FEFEFE"/>
<path d="M725.568 0H748.189C752.912 6.18573 755.007 16.4326 758.508 23.6078C758.3 17.0271 756.949 5.01618 760.518 0H783.623C784.079 0.552307 784.496 1.13626 784.822 1.77819C786.838 5.78452 786.663 75.8631 784.817 81.0672C784.608 81.651 783.893 81.9849 783.342 82.2219C780.403 83.4859 763.834 83.0293 760.89 81.825C758.255 79.5076 752.377 62.5273 750.491 58.0259C751.156 63.7536 752.152 74.4696 750.092 79.891C748.211 84.8479 733.771 82.2619 729.244 82.7619C726.621 83.0513 724.436 82.1161 724.11 79.1422C722.708 66.4505 723.755 53.3273 723.412 40.5461C723.282 28.5016 723.322 16.5752 723.744 4.57233C723.8 2.91656 724.673 1.34083 725.568 0Z" fill="#FEFEFE"/>
<path d="M581.257 335C579.732 333.767 578.285 332.845 578.251 330.882C578.088 321.411 577.649 307.829 577.975 298.743C578.33 288.841 576.939 261.545 579.022 253.259C582.276 250.263 622.417 252.281 629.286 251.841C638.755 251.233 639.724 259.689 639.955 266.802C640.399 280.35 642.736 287.527 628.402 293.391C636.971 297.332 637.066 304.488 638.26 313.234C639.026 318.81 642.51 331.379 637.567 335H616.022C610.448 329.719 612.993 312.843 607.937 303.379L606.834 303.22C602.938 310.686 608.517 328.415 602.538 334.838L602.386 335H581.257ZM605.342 283.156C607.487 283.003 610.735 282.872 612.773 282.571C612.965 280.029 613.128 277.876 613.077 275.327L605.342 275.29C605.353 277.733 605.455 280.766 605.342 283.156Z" fill="#FEFEFE"/>
<path d="M519.691 0H573.989C579.551 4.29504 580.188 11.6905 580.216 18.2269C580.283 31.8099 581.415 35.5171 568.708 41.3895C570.881 42.661 574.896 44.9818 575.442 47.5986C576.601 53.2075 582.35 77.6907 578.6 81.8599C575.014 83.4623 559.41 82.6966 554.694 82.6256C551.619 75.3773 551.587 59.5698 548.813 52.4264C547.291 51.6067 547.927 51.7195 546.255 51.8946C541.6 57.2918 553.306 85.4492 536.249 82.8227C533.324 82.3711 518.891 84.2843 518.641 80.315C517.06 55.2525 518.128 29.6245 518.134 4.46301C518.135 2.87074 518.885 1.31504 519.691 0ZM544.97 23.4267L545.094 31.2891C547.598 31.2097 550.1 31.0969 552.601 30.9506C552.907 28.1382 553.076 26.2553 553.062 23.4343C550.548 23.4357 547.427 23.5295 544.97 23.4267Z" fill="#FEFEFE"/>
<path d="M824.451 335C820.831 332.755 819.002 330.41 818.028 326.2C816.13 318.004 816.412 273.519 817.476 264.433C817.859 261.177 818.591 257.233 820.381 254.423C821.276 253.018 822.301 252.779 823.86 252.442C829.231 251.284 874.439 250.772 877.412 252.767C878.543 253.526 879.168 254.828 879.376 256.141C879.889 259.44 880.272 271.238 878.346 273.643C877.361 274.876 874.005 275.195 872.542 275.32C863.416 276.103 853.665 275.41 844.471 275.342L844.488 310.924L852.071 310.84L852.122 303.202C850.67 302.585 848.266 301.914 847.917 300.234C843.373 278.177 852.494 283.581 868.753 282.895C874.135 282.667 876.5 284.879 878.239 290.364C879.658 300.827 883.07 329.835 872.001 335H824.451Z" fill="#FEFEFE"/>
<path d="M513.144 335C511.594 333.62 509.923 332.29 510.097 329.581C510.471 323.735 510 319.904 510.827 313.769C511.979 305.228 512.585 258.135 516.462 253.647C519.77 249.816 548.411 252.778 554.854 251.664C558.586 251.19 563.349 252.268 565.651 254.102C566.969 256.099 567.475 258.221 567.796 260.567C568.922 268.712 572.43 327.37 571.692 330.918C571.326 332.717 570.285 333.985 568.798 335H547.878C547.614 334.761 547.356 334.517 547.104 334.266C543.749 330.916 544.363 324.963 544.33 320.344L537.73 320.358C537.67 325.785 538.499 331.322 533.91 335H513.144ZM541.586 303.796L542.892 302.674C543.025 299.425 542.173 276.725 541.237 274.563C539.955 277.974 539.297 297.598 539.213 302.393C539.208 302.737 541.005 303.506 541.586 303.796Z" fill="#FEFEFE"/>
<path d="M800.654 0H844.409C845.907 0.98731 848.896 2.83855 849.054 4.7974C850.951 28.4888 852.573 52.3827 853.389 76.1379C853.44 77.559 853.242 80.4175 852.561 81.5733C849.91 82.9026 846.734 82.8897 843.824 82.8131C827.407 82.3841 826.45 85.9649 825.949 68.3766C824.265 68.5461 821.642 68.496 819.869 68.5089C819.356 71.5132 819.683 80.0515 817.132 81.4208C812.161 84.085 802.686 82.4466 796.944 82.7039C795.294 82.7782 793.583 82.2557 792.552 81.0644C790.88 72.1337 793.69 48.4404 793.988 38.2077C794.27 28.5734 795.547 16.0945 796.105 6.25504C796.274 3.19852 798.396 1.76499 800.654 0ZM823.669 51.8316C823.9 51.5237 824.204 51.1203 824.581 50.6211C824.316 41.9383 824.192 33.151 823.449 24.4993C823.382 23.7523 822.937 23.2567 822.565 22.8759C821.952 26.0642 820.674 48.0499 821 50.9019C821.94 51.2853 822.672 51.612 823.669 51.8316Z" fill="#FEFEFE"/>
<path d="M445.218 335C443.515 333.602 442.03 332.32 442.085 329.967C442.346 318.815 440.743 259.434 443.076 253.027C447.69 250.91 496.709 251.252 502.333 252.866C504.624 255.363 504.546 270.42 503.396 273.473C499.333 276.635 475.803 275.353 468.974 275.406L469.062 283.058C476.583 282.954 491.693 281.737 498.495 284.55C500.096 285.212 500.258 300.932 498.509 301.688C491.595 304.675 476.702 303.464 468.975 303.452L469.052 310.936C474.825 310.884 497.967 309.506 503.172 312.844C504.528 313.713 504.485 330.766 502.952 333.06C501.57 334.115 501.183 334.469 499.546 335H445.218Z" fill="#FEFEFE"/>
<path d="M451.487 0H508.644C509.184 0.370344 509.699 0.77653 510.185 1.21581C511.312 2.25399 511.923 4.05058 511.8 5.56916C510.7 19.0998 516.331 24.2965 499.003 23.6865C492.779 23.4673 483.336 23.6364 476.622 23.6141C476.753 26.5692 476.817 28.1072 476.462 31.0263C483.153 31.1734 499.68 29.8162 505.981 32.7376C507.604 33.4901 507.658 49.1779 506.021 49.8286C498.524 52.8091 485.008 51.6051 476.658 51.3977C476.772 54.3528 476.728 56.1105 476.493 59.0597C482.788 59.1283 507.411 57.8407 510.772 60.854C512.22 63.6123 512.634 79.4074 510.004 81.6629C504.42 83.3593 456.959 83.2827 451.187 81.6617C448.541 79.3995 449.165 68.1283 449.261 64.5458C449.799 44.5701 448.665 24.5377 449.486 4.59505C449.555 2.92286 450.578 1.35031 451.487 0Z" fill="#FEFEFE"/>
<path d="M1024.57 0H1081.77C1086.96 3.5755 1084.32 9.29025 1084.84 14.5995C1085.67 23.0839 1082.26 23.6354 1074.81 23.6831C1066.38 23.737 1058.01 23.641 1049.62 23.6151C1049.86 26.7085 1049.98 27.9866 1049.55 31.0347C1055.39 31.0609 1076.44 29.8156 1079.56 33.3476C1080.28 36.0203 1080.45 47.2835 1079.4 49.6518C1075.65 52.6532 1055.65 51.5236 1049.57 51.4584C1049.87 54.6658 1049.99 55.8908 1049.59 59.0608L1073.38 58.978C1075.58 58.9752 1082.16 59.0157 1083.4 60.5393C1085.55 63.1652 1085.68 79.1895 1083.31 81.4078C1081.8 82.0744 1079.11 82.7416 1077.61 82.6712C1070.3 82.3284 1028.58 83.4955 1024.6 81.9534C1022.88 80.1022 1022.44 75.8581 1022.48 73.4202C1022.88 50.4873 1022.04 27.5077 1022.67 4.59969C1022.71 2.97871 1023.72 1.34397 1024.57 0Z" fill="#FEFEFE"/>
<path d="M592.455 0H642.651C647.206 3.10173 648.315 6.70338 648.574 11.8891C649.261 25.5521 652.993 33.2121 634.798 31.5326C626.212 30.7404 622.857 35.4349 621.286 23.9465C620.109 23.1814 615.526 23.5471 613.832 23.59L614.299 29.7131C621.787 33.2597 641.075 39.2783 645.545 45.0119C650.167 50.9342 649.593 64.2068 648.653 71.3133C648.197 74.79 647.11 79.3415 644.07 81.5249C641.075 83.6774 599.515 83.1763 594.223 82.1341C592.984 81.8903 590.794 81.4433 590.074 80.3364C586.335 74.6256 585.542 61.738 586.994 55.04C587.163 54.2524 587.659 52.5772 588.34 52.1725C591.746 50.1644 607.757 50.8131 611.929 51.852C614.868 53.8492 613.578 55.1585 614.141 57.9195C614.513 59.7477 620.227 59.5771 621.455 58.8969C621.432 57.8767 621.348 54.0466 620.824 53.5386C614.569 47.4686 596.588 44.3083 590.485 38.5963C586.375 34.7515 586.448 19.4438 586.735 13.9713C587.045 8.04338 588.041 4.01574 592.455 0Z" fill="#FEFEFE"/>
<path d="M386.944 0H437.07C437.672 0.462415 438.248 0.957881 438.795 1.48411C441.78 4.41278 443.556 12.4577 443.134 16.2921C442.295 23.9047 446.534 54.6949 436.466 56.9078C431.558 57.9871 414.131 57.4562 408.413 57.4077C408.574 63.2193 410.053 76.55 406.659 81.025C404.509 83.8609 384.823 83.5907 382.162 81.1719C379.589 71.3668 381.722 30.5296 381.101 18.0037C380.718 10.2731 381.372 5.4034 386.944 0ZM408.493 37.2017C410.247 37.1649 414.15 37.179 415.716 36.9266C416.256 32.9569 416.086 27.6268 416.068 23.4919C413.715 23.5253 410.833 23.6481 408.529 23.5772L408.493 37.2017Z" fill="#FEFEFE"/>
<path d="M956.365 0H1010.16C1018.84 7.27643 1017.42 23.6222 1014.07 33.2962C1011.87 35.676 1004.95 40.6174 1002.1 42.736L980.174 59.0636C984.278 59.0371 1012.34 57.7135 1015.49 61.1372C1016.97 62.7463 1017.18 78.3928 1014.76 81.4523C1010.41 84.3147 973.835 81.9489 966.364 82.6887C950.96 84.4583 954.276 64.6083 954.502 55.0509C954.597 51.1047 958.094 47.3222 961.038 45.0686C970.547 37.7833 980.439 30.6692 990.128 23.6306C984.374 23.6018 960.813 24.8058 955.352 22.0206C953.387 21.0195 954.164 7.65067 954.063 5.07805C953.984 3.12123 954.626 1.53476 956.365 0Z" fill="#FEFEFE"/>
<path d="M384.259 335C382.201 333.431 381.409 332.461 381.181 329.723C380.565 322.343 381.213 314.687 381.153 307.195C381.027 291.454 380.967 275.705 381.082 259.969C381.097 257.965 381.457 255.269 382.088 253.365C384.338 250.809 403.952 251.043 406.749 253.255C407.435 254.19 408.037 255.319 408.06 256.503C408.416 274.623 407.951 292.835 408.16 310.954C413.182 310.883 430.229 309.657 434.608 312.647C436.551 313.974 435.54 327.175 435.691 329.999C435.859 333.132 432.712 334.427 430.063 335H384.259Z" fill="#FEFEFE"/>
<path d="M861.361 0H884.331C888.024 3.94945 886.813 16.6806 886.808 22.3343L886.78 59.0901C892.984 59.1768 910.403 56.6049 913.769 62.5549C914.952 64.6488 915.599 81.4658 911.85 81.7721C903.703 82.4376 867.345 84.2286 861.434 82.0975C860.961 81.7045 860.691 81.347 860.505 80.7586C858.608 74.839 858.85 13.9504 859.722 4.97635C859.903 3.12069 860.482 1.63212 861.361 0Z" fill="#FEFEFE"/>
<path d="M718.272 335C715.862 332.975 715.198 331.015 715.119 327.793C714.578 305.003 715.547 282.169 714.73 259.375C714.595 255.664 717.585 251.283 721.396 251.592C725.94 251.96 737.92 250.636 741.427 253.239C742.187 255.603 742.401 258.127 742.52 260.598C742.852 267.922 743.336 329.23 741.844 332.339C741.377 333.32 740.352 334.359 739.474 335H718.272Z" fill="#FEFEFE"/>
<path d="M922.434 0H945.719C949.952 4.43942 947.954 70.1338 947.109 80.4811C946.822 83.9915 924.973 83.0181 922.597 82.0998C920.728 80.5272 920.367 76.2815 920.412 73.9759C920.846 50.9349 919.996 27.8539 920.61 4.83611C920.655 3.11021 921.567 1.45239 922.434 0Z" fill="#FEFEFE"/>
</g>
<defs>
<clipPath id="clip0_13_108">
<rect width="1153" height="335" fill="white"/>
</clipPath>
</defs>
</svg>
