<svg width="1569" height="163" viewBox="0 0 1569 163" fill="none" xmlns="http://www.w3.org/2000/svg">
<g clip-path="url(#clip0_13_136)">
<path d="M250.679 68.9757L266.578 53.0775C258.767 44.3536 247.418 38.8639 234.787 38.8639C215.594 38.8639 199.361 51.5392 194.003 68.9757H154.617C160.648 30.1239 194.245 0.387695 234.787 0.387695C258.043 0.387695 279.013 10.172 293.807 25.8487L315.922 3.73345V68.9757H250.679Z" fill="white"/>
<path d="M24.8695 105.566C32.5782 110.562 40.2154 114.488 47.7814 117.343C55.3471 120.198 62.4133 121.626 68.9802 121.626C75.2611 121.626 80.0432 120.769 83.3268 119.056C86.6101 117.2 88.2517 114.488 88.2517 110.919C88.2517 109.063 87.5378 107.636 86.1104 106.637C84.6829 105.494 82.7557 104.567 80.3288 103.853C78.045 103.139 75.3325 102.568 72.192 102.14C69.0515 101.711 65.8393 101.141 62.5561 100.427C59.4156 99.8557 55.704 99.2135 51.4216 98.4996C47.2817 97.6432 42.999 96.501 38.5738 95.0736C34.1483 93.5033 29.7231 91.5761 25.2978 89.292C21.0152 87.0082 17.1609 84.0815 13.7348 80.5127C10.3088 76.9439 7.52511 72.7329 5.38382 67.8794C3.38527 62.8828 2.386 57.0302 2.386 50.3205C2.386 40.4708 4.31317 32.3339 8.16748 25.91C12.0218 19.4861 16.8754 14.4184 22.7282 10.7069C28.7239 6.85257 35.3619 4.21165 42.6424 2.78413C49.9224 1.21385 56.9887 0.428711 63.8411 0.428711C75.8322 0.428711 86.5387 2.21312 95.9601 5.78193C105.525 9.208 114.661 14.2757 123.369 20.9851C124.511 21.9843 125.153 23.1977 125.296 24.6253C125.439 26.0528 125.082 27.3376 124.225 28.4796L107.523 52.2477C106.667 53.39 105.525 54.1035 104.097 54.3891C102.67 54.6746 101.385 54.3891 100.243 53.5327C92.9624 48.9645 86.1817 45.7526 79.9005 43.8968C73.6195 41.8982 67.8379 40.8991 62.5561 40.8991C60.9858 40.8991 59.13 40.9705 56.9887 41.1133C54.9904 41.1133 53.0632 41.3988 51.2074 41.9696C49.3516 42.3979 47.7814 43.1832 46.4964 44.3251C45.3545 45.467 44.7834 47.0373 44.7834 49.0359C44.7834 51.0344 46.2826 52.8188 49.2803 54.3891C52.278 55.9593 55.704 57.3157 59.5584 58.4576C63.4128 59.5995 67.1244 60.5276 70.6932 61.2412C74.262 61.8123 76.5458 62.1692 77.5453 62.312C82.6843 63.3111 88.3231 64.81 94.4613 66.8086C100.6 68.6644 106.31 71.5193 111.592 75.3737C117.016 79.0853 121.513 84.0101 125.082 90.1487C128.793 96.1444 130.649 103.71 130.649 112.846C130.649 121.411 129.15 128.835 126.152 135.116C123.155 141.254 118.943 146.322 113.519 150.319C108.237 154.316 101.813 157.314 94.2471 159.312C86.8243 161.168 78.5444 162.096 69.4082 162.096C61.9853 162.096 55.0618 161.454 48.6378 160.169C42.214 159.027 36.2183 157.385 30.651 155.244C25.0836 153.102 19.8732 150.604 15.0196 147.749C10.3088 144.751 5.9548 141.611 1.95775 138.328C0.815728 137.471 0.173342 136.329 0.0305898 134.902C-0.112163 133.331 0.244719 131.975 1.10123 130.833L17.5892 107.065C18.4457 105.923 19.5877 105.209 21.0152 104.924C22.4427 104.638 23.7275 104.852 24.8695 105.566Z" fill="white"/>
<path d="M490.077 7.70793V154.172C490.077 155.6 489.577 156.813 488.58 157.812C487.579 158.811 486.368 159.311 484.94 159.311H453.248C451.821 159.311 450.323 158.883 448.751 158.026C447.18 157.17 445.966 156.171 445.112 155.028L389.224 76.4434C388.367 75.3011 387.44 74.8731 386.439 75.1583C385.582 75.3011 385.155 76.0864 385.155 77.5139V154.172C385.155 155.6 384.654 156.813 383.657 157.812C382.656 158.811 381.442 159.311 380.017 159.311H348.112C346.684 159.311 345.47 158.811 344.469 157.812C343.472 156.813 342.971 155.6 342.971 154.172V7.70793C342.971 6.28041 343.472 5.06701 344.469 4.06776C345.47 3.06848 346.684 2.56885 348.112 2.56885H380.231C381.658 2.56885 383.156 2.99711 384.728 3.85362C386.295 4.56739 387.51 5.49529 388.367 6.63729L444.041 85.2226C444.898 86.3645 445.752 86.8643 446.61 86.7215C447.611 86.5787 448.108 85.7934 448.108 84.366V7.70793C448.108 6.28041 448.608 5.06701 449.609 4.06776C450.606 3.06848 451.821 2.56885 453.248 2.56885H484.94C486.368 2.56885 487.579 3.06848 488.58 4.06776C489.577 5.06701 490.077 6.28041 490.077 7.70793Z" fill="white"/>
<path d="M591.588 162.095C580.168 162.095 569.46 159.954 559.469 155.672C549.478 151.389 540.697 145.608 533.131 138.327C525.709 131.047 519.784 122.482 515.357 112.632C511.077 102.782 508.936 92.2896 508.936 81.1548C508.936 70.02 511.077 59.5277 515.357 49.6779C519.784 39.8278 525.709 31.2628 533.131 23.9824C540.697 16.5593 549.478 10.7064 559.469 6.42384C569.46 2.14128 580.168 0 591.588 0C607.29 0 620.924 3.21193 632.486 9.63578C644.192 16.0597 653.687 24.9103 660.966 36.1876C661.68 37.3298 661.823 38.6859 661.393 40.2561C661.109 41.6836 660.395 42.7544 659.254 43.468L633.557 59.956C632.416 60.6699 631.132 60.9552 629.704 60.8127C628.276 60.5271 627.062 59.8132 626.061 58.6713C621.638 53.2467 616.641 48.8926 611.073 45.6094C605.649 42.3261 599.153 40.6845 591.588 40.6845C586.163 40.6845 581.026 41.8264 576.172 44.1105C571.462 46.2519 567.322 49.1782 563.752 52.8898C560.183 56.6014 557.327 60.9551 555.185 65.9518C553.187 70.8053 552.19 75.8729 552.19 81.1548C552.19 86.5794 553.187 91.7185 555.185 96.572C557.327 101.426 560.183 105.708 563.752 109.42C567.322 112.989 571.462 115.915 576.172 118.199C581.026 120.34 586.163 121.411 591.588 121.411C597.012 121.411 602.366 120.412 607.647 118.413C612.931 116.415 617.141 113.131 620.28 108.563C620.994 107.421 621.067 106.422 620.497 105.565C619.923 104.566 618.926 104.067 617.498 104.067H592.872C591.444 104.067 590.233 103.567 589.232 102.568C588.235 101.568 587.734 100.355 587.734 98.9275V73.446C587.734 72.0186 588.235 70.8053 589.232 69.8058C590.233 68.8067 591.444 68.307 592.872 68.307H666.533C667.961 68.307 669.175 68.8067 670.173 69.8058C671.314 70.6625 671.958 71.8758 672.101 73.446C672.385 75.8729 672.528 78.8706 672.528 82.4395C672.528 85.8655 672.315 89.4343 671.888 93.1459C670.887 102.996 668.105 112.132 663.534 120.555C658.967 128.977 653.043 136.257 645.764 142.395C638.625 148.534 630.418 153.388 621.138 156.956C611.86 160.382 602.009 162.095 591.588 162.095Z" fill="white"/>
<path d="M314.957 94.0703C308.926 132.922 275.329 162.658 234.787 162.658C211.531 162.658 190.561 152.874 175.768 137.198L153.652 159.313V94.0703H218.895L202.996 109.969C210.807 118.693 222.156 124.182 234.787 124.182C253.98 124.182 270.213 111.507 275.571 94.0703H314.957Z" fill="white"/>
<path d="M749.398 105.178C757.106 110.174 764.744 114.1 772.309 116.955C779.875 119.811 786.941 121.239 793.508 121.239C799.789 121.239 804.571 120.382 807.855 118.668C811.138 116.812 812.78 114.1 812.78 110.531C812.78 108.675 812.066 107.248 810.638 106.248C809.211 105.107 807.284 104.178 804.857 103.465C802.573 102.751 799.861 102.18 796.72 101.752C793.58 101.324 790.367 100.752 787.084 100.039C783.944 99.4677 780.232 98.8252 775.95 98.1117C771.81 97.255 767.527 96.1131 763.102 94.6856C758.676 93.1154 754.251 91.1882 749.826 88.9041C745.543 86.6199 741.689 83.6936 738.263 80.1248C734.837 76.556 732.053 72.3446 729.912 67.4911C727.913 62.4949 726.914 56.6419 726.914 49.9326C726.914 40.0828 728.841 31.9457 732.696 25.522C736.55 19.0982 741.403 14.0306 747.256 10.319C753.252 6.4646 759.89 3.82352 767.17 2.39606C774.451 0.825816 781.517 0.0405273 788.369 0.0405273C800.36 0.0405273 811.067 1.82493 820.488 5.39375C830.053 8.81979 839.189 13.8878 847.897 20.5971C849.039 21.5962 849.681 22.8099 849.824 24.2373C849.967 25.6648 849.61 26.9494 848.753 28.0917L832.051 51.8598C831.195 53.0017 830.053 53.7156 828.625 54.0012C827.198 54.2867 825.913 54.0012 824.771 53.1445C817.491 48.5765 810.71 45.3647 804.429 43.5089C798.148 41.5103 792.366 40.5108 787.084 40.5108C785.514 40.5108 783.658 40.5822 781.517 40.725C779.519 40.725 777.591 41.0106 775.736 41.5817C773.88 42.01 772.309 42.795 771.024 43.9372C769.883 45.0791 769.311 46.6494 769.311 48.6479C769.311 50.6465 770.811 52.4309 773.808 54.0012C776.806 55.5714 780.232 56.9275 784.086 58.0697C787.941 59.2116 791.652 60.1393 795.221 60.8532C798.79 61.4244 801.074 61.781 802.073 61.9237C807.212 62.9232 812.851 64.4221 818.989 66.4206C825.128 68.2764 830.838 71.1313 836.12 74.9857C841.544 78.6973 846.041 83.6222 849.61 89.7607C853.321 95.7561 855.177 103.322 855.177 112.458C855.177 121.022 853.678 128.448 850.68 134.726C847.683 140.864 843.739 145.395 838.315 149.391C833.033 153.388 826.341 156.927 818.775 158.925C811.352 160.78 803.072 161.708 793.936 161.708C786.513 161.708 779.59 161.067 773.166 159.779C766.742 158.638 760.746 156.997 755.179 154.855C749.612 152.714 744.401 150.215 739.548 147.36C734.837 144.364 730.483 141.221 726.486 137.939C725.344 137.081 724.701 135.941 724.559 134.513C724.416 132.945 724.773 131.587 725.629 130.446L742.117 106.677C742.974 105.535 744.116 104.821 745.543 104.535C746.971 104.25 748.256 104.464 749.398 105.178Z" fill="white"/>
<path d="M984.114 41.5809H954.136C952.709 41.5809 951.496 42.0807 950.497 43.0798C949.497 44.0789 948.997 45.2925 948.997 46.72V153.784C948.997 155.212 948.498 156.426 947.499 157.423C946.642 158.424 945.429 158.925 943.858 158.925H911.739C910.312 158.925 909.098 158.424 908.099 157.423C907.1 156.426 906.6 155.212 906.6 153.784V46.72C906.6 45.2925 906.101 44.0789 905.101 43.0798C904.245 42.0807 903.031 41.5809 901.461 41.5809H871.055C869.627 41.5809 868.414 41.0812 867.415 40.0821C866.415 39.0826 865.916 37.8694 865.916 36.4419V7.3202C865.916 5.89274 866.415 4.67947 867.415 3.68001C868.414 2.68089 869.627 2.18115 871.055 2.18115H984.114C985.685 2.18115 986.898 2.68089 987.755 3.68001C988.754 4.67947 989.254 5.89274 989.254 7.3202V36.4419C989.254 37.8694 988.754 39.0826 987.755 40.0821C986.898 41.0812 985.685 41.5809 984.114 41.5809Z" fill="white"/>
<path d="M1010.62 7.53504C1010.62 6.10758 1011.12 4.89431 1012.12 3.89486C1013.12 2.89573 1014.33 2.396 1015.76 2.396H1048.09C1049.52 2.396 1050.73 2.89573 1051.73 3.89486C1052.73 4.89431 1053.23 6.10758 1053.23 7.53504V94.2572C1053.23 99.8246 1054.09 104.464 1055.8 108.176C1057.66 111.744 1059.87 114.6 1062.44 116.741C1065.15 118.739 1068.01 120.168 1071.01 121.022C1074 121.879 1076.72 122.31 1079.14 122.31C1081.57 122.31 1084.28 121.879 1087.28 121.022C1090.28 120.168 1093.06 118.739 1095.63 116.741C1098.2 114.6 1100.34 111.744 1102.05 108.176C1103.91 104.464 1104.84 99.8246 1104.84 94.2572V7.53504C1104.84 6.10758 1105.34 4.89431 1106.34 3.89486C1107.34 2.89573 1108.55 2.396 1109.98 2.396H1142.31C1143.74 2.396 1144.95 2.89573 1145.95 3.89486C1146.95 4.89431 1147.45 6.10758 1147.45 7.53504V94.2572C1147.45 104.393 1145.81 113.6 1142.53 121.879C1139.38 130.159 1134.82 137.225 1128.82 143.079C1122.83 148.931 1115.62 153.501 1107.19 156.784C1098.77 159.923 1089.42 161.494 1079.14 161.494C1068.86 161.494 1059.51 159.923 1051.09 156.784C1042.67 153.501 1035.46 148.931 1029.46 143.079C1023.47 137.225 1018.83 130.159 1015.55 121.879C1012.26 113.6 1010.62 104.393 1010.62 94.2572V7.53504Z" fill="white"/>
<path d="M1174.95 153.784V7.3202C1174.95 5.89274 1175.45 4.67947 1176.45 3.68001C1177.45 2.68089 1178.66 2.18115 1180.09 2.18115H1238.55C1260.96 2.18115 1279.3 8.74769 1293.58 21.8811C1301.29 29.0187 1307.14 37.5124 1311.13 47.3625C1315.13 57.2123 1317.13 68.2757 1317.13 80.5524C1317.13 92.8291 1315.13 103.964 1311.13 113.956C1307.14 123.807 1301.29 132.3 1293.58 139.439C1286.44 145.861 1278.23 150.715 1268.95 153.997C1259.82 157.283 1249.68 158.925 1238.55 158.925H1180.09C1178.66 158.925 1177.45 158.424 1176.45 157.423C1175.45 156.426 1174.95 155.212 1174.95 153.784ZM1222.49 119.524H1238.55C1242.54 119.524 1246.68 119.024 1250.97 118.025C1255.25 117.026 1259.1 115.17 1262.53 112.458C1265.96 109.602 1268.74 105.677 1270.88 100.68C1273.16 95.5412 1274.31 88.9033 1274.31 80.7666C1274.31 72.6295 1273.16 66.063 1270.88 61.0667C1268.74 55.9276 1265.88 52.0018 1262.32 49.2897C1258.89 46.4344 1255.03 44.5072 1250.75 43.5081C1246.61 42.5087 1242.54 42.0093 1238.55 42.0093H1222.49C1221.06 42.0093 1219.85 42.5087 1218.85 43.5081C1217.85 44.5072 1217.35 45.7209 1217.35 47.1483V114.385C1217.35 115.812 1217.85 117.026 1218.85 118.025C1219.85 119.024 1221.06 119.524 1222.49 119.524Z" fill="white"/>
<path d="M1379.89 158.925H1347.55C1345.98 158.925 1344.7 158.425 1343.7 157.424C1342.84 156.427 1342.41 155.212 1342.41 153.785V7.53504C1342.41 6.10758 1342.84 4.89431 1343.7 3.89486C1344.7 2.89573 1345.98 2.396 1347.55 2.396H1379.89C1381.31 2.396 1382.53 2.89573 1383.53 3.89486C1384.53 4.89431 1385.03 6.10758 1385.03 7.53504V153.785C1385.03 155.212 1384.53 156.427 1383.53 157.424C1382.53 158.425 1381.31 158.925 1379.89 158.925Z" fill="white"/>
<path d="M1518.34 81.1356C1518.34 98.2278 1504.48 112.084 1487.39 112.084C1470.3 112.084 1456.45 98.2278 1456.45 81.1356C1456.45 64.0435 1470.3 50.1875 1487.39 50.1875C1504.48 50.1875 1518.34 64.0435 1518.34 81.1356Z" fill="white"/>
<path fill-rule="evenodd" clip-rule="evenodd" d="M1487.39 162.271C1532.2 162.271 1568.53 125.945 1568.53 81.1348C1568.53 36.3254 1532.2 0 1487.39 0C1442.59 0 1406.26 36.3254 1406.26 81.1348C1406.26 125.945 1442.59 162.271 1487.39 162.271ZM1487.39 140.523C1520.19 140.523 1546.78 113.933 1546.78 81.1348C1546.78 48.3362 1520.19 21.7475 1487.39 21.7475C1454.59 21.7475 1428.01 48.3362 1428.01 81.1348C1428.01 113.933 1454.59 140.523 1487.39 140.523ZM1565.18 81.1348C1565.18 85.2924 1561.81 88.6627 1557.65 88.6627C1553.5 88.6627 1550.13 85.2924 1550.13 81.1348C1550.13 76.9772 1553.5 73.6068 1557.65 73.6068C1561.81 73.6068 1565.18 76.9772 1565.18 81.1348ZM1487.39 18.4019C1491.55 18.4019 1494.92 15.0312 1494.92 10.8739C1494.92 6.71632 1491.55 3.34597 1487.39 3.34597C1483.24 3.34597 1479.86 6.71632 1479.86 10.8739C1479.86 15.0312 1483.24 18.4019 1487.39 18.4019ZM1494.92 151.395C1494.92 155.552 1491.55 158.925 1487.39 158.925C1483.24 158.925 1479.86 155.552 1479.86 151.395C1479.86 147.239 1483.24 143.869 1487.39 143.869C1491.55 143.869 1494.92 147.239 1494.92 151.395ZM1417.13 88.6627C1421.29 88.6627 1424.66 85.2924 1424.66 81.1348C1424.66 76.9772 1421.29 73.6068 1417.13 73.6068C1412.98 73.6068 1409.61 76.9772 1409.61 81.1348C1409.61 85.2924 1412.98 88.6627 1417.13 88.6627Z" fill="white"/>
</g>
<defs>
<clipPath id="clip0_13_136">
<rect width="1569" height="163" fill="white"/>
</clipPath>
</defs>
</svg>
