<svg width="844" height="377" viewBox="0 0 844 377" fill="none" xmlns="http://www.w3.org/2000/svg">
<g clip-path="url(#clip0_13_136)">
<path d="M24.8695 105.566C32.5782 110.562 40.2154 114.488 47.7814 117.343C55.3471 120.198 62.4133 121.626 68.9802 121.626C75.2611 121.626 80.0432 120.769 83.3268 119.056C86.6101 117.2 88.2517 114.488 88.2517 110.919C88.2517 109.063 87.5378 107.636 86.1104 106.637C84.6829 105.494 82.7557 104.567 80.3288 103.853C78.045 103.139 75.3325 102.568 72.192 102.14C69.0515 101.711 65.8393 101.141 62.5561 100.427C59.4156 99.8557 55.704 99.2135 51.4216 98.4996C47.2817 97.6432 42.999 96.501 38.5738 95.0736C34.1483 93.5033 29.7231 91.5761 25.2978 89.292C21.0152 87.0082 17.1609 84.0815 13.7348 80.5127C10.3088 76.9439 7.52511 72.7329 5.38382 67.8794C3.38527 62.8828 2.386 57.0302 2.386 50.3205C2.386 40.4708 4.31317 32.3339 8.16748 25.91C12.0218 19.4861 16.8754 14.4184 22.7282 10.7069C28.7239 6.85257 35.3619 4.21165 42.6424 2.78413C49.9224 1.21385 56.9887 0.428711 63.8411 0.428711C75.8322 0.428711 86.5387 2.21312 95.9601 5.78193C105.525 9.208 114.661 14.2757 123.369 20.9851C124.511 21.9843 125.153 23.1977 125.296 24.6253C125.439 26.0528 125.082 27.3376 124.225 28.4796L107.523 52.2477C106.667 53.39 105.525 54.1035 104.097 54.3891C102.67 54.6746 101.385 54.3891 100.243 53.5327C92.9624 48.9645 86.1817 45.7526 79.9005 43.8968C73.6195 41.8982 67.8379 40.8991 62.5561 40.8991C60.9858 40.8991 59.13 40.9705 56.9887 41.1133C54.9904 41.1133 53.0632 41.3988 51.2074 41.9696C49.3516 42.3979 47.7814 43.1832 46.4964 44.3251C45.3545 45.467 44.7834 47.0373 44.7834 49.0359C44.7834 51.0344 46.2826 52.8188 49.2803 54.3891C52.278 55.9593 55.704 57.3157 59.5584 58.4576C63.4128 59.5995 67.1244 60.5276 70.6932 61.2412C74.262 61.8123 76.5458 62.1692 77.5453 62.312C82.6843 63.3111 88.3231 64.81 94.4613 66.8086C100.6 68.6644 106.31 71.5193 111.592 75.3737C117.016 79.0853 121.513 84.0101 125.082 90.1487C128.793 96.1444 130.649 103.71 130.649 112.846C130.649 121.411 129.15 128.835 126.152 135.116C123.155 141.254 118.943 146.322 113.519 150.319C108.237 154.316 101.813 157.314 94.2471 159.312C86.8243 161.168 78.5444 162.096 69.4082 162.096C61.9853 162.096 55.0618 161.454 48.6378 160.169C42.214 159.027 36.2183 157.385 30.651 155.244C25.0836 153.102 19.8732 150.604 15.0196 147.749C10.3088 144.751 5.9548 141.611 1.95775 138.328C0.815728 137.471 0.173342 136.329 0.0305898 134.902C-0.112163 133.331 0.244719 131.975 1.10123 130.833L17.5892 107.065C18.4457 105.923 19.5877 105.209 21.0152 104.924C22.4427 104.638 23.7275 104.852 24.8695 105.566Z" fill="white"/>
<path d="M490.077 7.70793V154.172C490.077 155.6 489.577 156.813 488.58 157.812C487.579 158.811 486.368 159.311 484.94 159.311H453.248C451.821 159.311 450.323 158.883 448.751 158.026C447.18 157.17 445.966 156.171 445.112 155.028L389.224 76.4434C388.367 75.3011 387.44 74.8731 386.439 75.1583C385.582 75.3011 385.155 76.0864 385.155 77.5139V154.172C385.155 155.6 384.654 156.813 383.657 157.812C382.656 158.811 381.442 159.311 380.017 159.311H348.112C346.684 159.311 345.47 158.811 344.469 157.812C343.472 156.813 342.971 155.6 342.971 154.172V7.70793C342.971 6.28041 343.472 5.06701 344.469 4.06776C345.47 3.06848 346.684 2.56885 348.112 2.56885H380.231C381.658 2.56885 383.156 2.99711 384.728 3.85362C386.295 4.56739 387.51 5.49529 388.367 6.63729L444.041 85.2226C444.898 86.3645 445.752 86.8643 446.61 86.7215C447.611 86.5787 448.108 85.7934 448.108 84.366V7.70793C448.108 6.28041 448.608 5.06701 449.609 4.06776C450.606 3.06848 451.821 2.56885 453.248 2.56885H484.94C486.368 2.56885 487.579 3.06848 488.58 4.06776C489.577 5.06701 490.077 6.28041 490.077 7.70793Z" fill="white"/>
<path d="M591.588 162.095C580.168 162.095 569.46 159.954 559.469 155.672C549.478 151.389 540.697 145.608 533.131 138.327C525.709 131.047 519.784 122.482 515.357 112.632C511.077 102.782 508.936 92.2896 508.936 81.1548C508.936 70.02 511.077 59.5277 515.357 49.6779C519.784 39.8278 525.709 31.2628 533.131 23.9824C540.697 16.5593 549.478 10.7064 559.469 6.42384C569.46 2.14128 580.168 0 591.588 0C607.29 0 620.924 3.21193 632.486 9.63578C644.192 16.0597 653.687 24.9103 660.966 36.1876C661.68 37.3298 661.823 38.6859 661.393 40.2561C661.109 41.6836 660.395 42.7544 659.254 43.468L633.557 59.956C632.416 60.6699 631.132 60.9552 629.704 60.8127C628.276 60.5271 627.062 59.8132 626.061 58.6713C621.638 53.2467 616.641 48.8926 611.073 45.6094C605.649 42.3261 599.153 40.6845 591.588 40.6845C586.163 40.6845 581.026 41.8264 576.172 44.1105C571.462 46.2519 567.322 49.1782 563.752 52.8898C560.183 56.6014 557.327 60.9551 555.185 65.9518C553.187 70.8053 552.19 75.8729 552.19 81.1548C552.19 86.5794 553.187 91.7185 555.185 96.572C557.327 101.426 560.183 105.708 563.752 109.42C567.322 112.989 571.462 115.915 576.172 118.199C581.026 120.34 586.163 121.411 591.588 121.411C597.012 121.411 602.366 120.412 607.647 118.413C612.931 116.415 617.141 113.131 620.28 108.563C620.994 107.421 621.067 106.422 620.497 105.565C619.923 104.566 618.926 104.067 617.498 104.067H592.872C591.444 104.067 590.233 103.567 589.232 102.568C588.235 101.568 587.734 100.355 587.734 98.9275V73.446C587.734 72.0186 588.235 70.8053 589.232 69.8058C590.233 68.8067 591.444 68.307 592.872 68.307H666.533C667.961 68.307 669.175 68.8067 670.173 69.8058C671.314 70.6625 671.958 71.8758 672.101 73.446C672.385 75.8729 672.528 78.8706 672.528 82.4395C672.528 85.8655 672.315 89.4343 671.888 93.1459C670.887 102.996 668.105 112.132 663.534 120.555C658.967 128.977 653.043 136.257 645.764 142.395C638.625 148.534 630.418 153.388 621.138 156.956C611.86 160.382 602.009 162.095 591.588 162.095Z" fill="white"/>
<path d="M24.8695 319.695C32.5782 324.691 40.2154 328.617 47.7814 331.472C55.3471 334.328 62.4133 335.756 68.9802 335.756C75.2611 335.756 80.0432 334.899 83.3268 333.185C86.6101 331.329 88.2517 328.617 88.2517 325.048C88.2517 323.192 87.5378 321.765 86.1104 320.766C84.6829 319.624 82.7557 318.696 80.3288 317.982C78.045 317.268 75.3325 316.697 72.192 316.269C69.0515 315.841 65.8393 315.27 62.5561 314.556C59.4156 313.985 55.704 313.342 51.4216 312.629C47.2817 311.772 42.999 310.63 38.5738 309.203C34.1483 307.632 29.7231 305.705 25.2978 303.421C21.0152 301.137 17.1609 298.211 13.7348 294.642C10.3088 291.073 7.52511 286.862 5.38382 282.008C3.38527 277.012 2.386 271.159 2.386 264.45C2.386 254.6 4.31317 246.463 8.16748 240.039C12.0218 233.615 16.8754 228.548 22.7282 224.836C28.7239 220.982 35.3619 218.341 42.6424 216.913C49.9224 215.343 56.9887 214.558 63.8411 214.558C75.8322 214.558 86.5387 216.342 95.9601 219.911C105.525 223.337 114.661 228.405 123.369 235.114C124.511 236.113 125.153 237.327 125.296 238.754C125.439 240.182 125.082 241.467 124.225 242.609L107.523 266.377C106.667 267.519 105.525 268.233 104.097 268.518C102.67 268.804 101.385 268.518 100.243 267.662C92.9624 263.094 86.1817 259.882 79.9005 258.026C73.6195 256.027 67.8379 255.028 62.5561 255.028C60.9858 255.028 59.13 255.099 56.9887 255.242C54.9904 255.242 53.0632 255.528 51.2074 256.099C49.3516 256.527 47.7814 257.312 46.4964 258.454C45.3545 259.596 44.7834 261.166 44.7834 263.165C44.7834 265.164 46.2826 266.948 49.2803 268.518C52.278 270.088 55.704 271.445 59.5584 272.587C63.4128 273.729 67.1244 274.656 70.6932 275.37C74.262 275.941 76.5458 276.298 77.5453 276.441C82.6843 277.44 88.3231 278.939 94.4613 280.938C100.6 282.794 106.31 285.648 111.592 289.503C117.016 293.214 121.513 298.139 125.082 304.278C128.793 310.273 130.649 317.839 130.649 326.975C130.649 335.539 129.15 342.965 126.152 349.243C123.155 355.382 119.211 359.912 113.787 363.908C108.505 367.905 101.813 371.444 94.2471 373.442C86.8243 375.297 78.5444 376.225 69.4082 376.225C61.9853 376.225 55.0618 375.584 48.6378 374.296C42.214 373.156 36.2183 371.514 30.651 369.373C25.0836 367.231 19.8732 364.732 15.0196 361.877C10.3088 358.881 5.9548 355.738 1.95775 352.456C0.815728 351.599 0.173342 350.458 0.0305898 349.03C-0.112163 347.462 0.244719 346.104 1.10123 344.963L17.5892 321.194C18.4457 320.052 19.5877 319.338 21.0152 319.052C22.4427 318.767 23.7275 318.981 24.8695 319.695Z" fill="white"/>
<path d="M259.586 256.098H229.608C228.181 256.098 226.968 256.598 225.968 257.597C224.969 258.596 224.469 259.81 224.469 261.237V368.301C224.469 369.729 223.97 370.943 222.97 371.941C222.114 372.941 220.901 373.442 219.33 373.442H187.211C185.784 373.442 184.57 372.941 183.571 371.941C182.572 370.943 182.072 369.729 182.072 368.301V261.237C182.072 259.81 181.572 258.596 180.573 257.597C179.717 256.598 178.503 256.098 176.933 256.098H146.527C145.099 256.098 143.886 255.598 142.887 254.599C141.887 253.6 141.388 252.386 141.388 250.959V221.837C141.388 220.41 141.887 219.197 142.887 218.197C143.886 217.198 145.099 216.698 146.527 216.698H259.586C261.157 216.698 262.37 217.198 263.227 218.197C264.226 219.197 264.726 220.41 264.726 221.837V250.959C264.726 252.386 264.226 253.6 263.227 254.599C262.37 255.598 261.157 256.098 259.586 256.098Z" fill="white"/>
<path d="M286.094 222.052C286.094 220.625 286.593 219.411 287.592 218.412C288.591 217.413 289.805 216.913 291.233 216.913H323.566C324.994 216.913 326.207 217.413 327.206 218.412C328.205 219.411 328.705 220.625 328.705 222.052V308.774C328.705 314.342 329.562 318.981 331.275 322.693C333.13 326.261 335.342 329.117 337.914 331.258C340.626 333.256 343.481 334.685 346.477 335.539C349.476 336.396 352.188 336.827 354.614 336.827C357.042 336.827 359.754 336.396 362.75 335.539C365.749 334.685 368.535 333.256 371.103 331.258C373.672 329.117 375.814 326.261 377.525 322.693C379.383 318.981 380.311 314.342 380.311 308.774V222.052C380.311 220.625 380.811 219.411 381.808 218.412C382.809 217.413 384.02 216.913 385.448 216.913H417.784C419.211 216.913 420.422 217.413 421.423 218.412C422.421 219.411 422.921 220.625 422.921 222.052V308.774C422.921 318.91 421.28 328.117 417.997 336.396C414.855 344.676 410.288 351.742 404.293 357.597C398.298 363.448 391.089 368.018 382.666 371.301C374.242 374.44 364.892 376.011 354.614 376.011C344.336 376.011 334.985 374.44 326.564 371.301C318.141 368.018 310.932 363.448 304.937 357.597C298.941 351.742 294.302 344.676 291.018 336.396C287.735 328.117 286.094 318.91 286.094 308.774V222.052Z" fill="white"/>
<path d="M450.423 368.301V221.837C450.423 220.41 450.923 219.197 451.92 218.197C452.921 217.198 454.132 216.698 455.56 216.698H514.019C536.431 216.698 554.775 223.265 569.05 236.398C576.759 243.536 582.61 252.029 586.607 261.88C590.607 271.729 592.605 282.793 592.605 295.069C592.605 307.346 590.607 318.481 586.607 328.474C582.61 338.324 576.759 346.817 569.05 353.956C561.911 360.378 553.704 365.232 544.424 368.515C535.29 371.8 525.152 373.442 514.019 373.442H455.56C454.132 373.442 452.921 372.941 451.92 371.941C450.923 370.943 450.423 369.729 450.423 368.301ZM497.96 334.041H514.019C518.016 334.041 522.156 333.541 526.439 332.542C530.719 331.543 534.576 329.687 538.002 326.975C541.428 324.119 544.21 320.194 546.352 315.197C548.637 310.058 549.778 303.42 549.778 295.284C549.778 287.147 548.637 280.58 546.352 275.584C544.21 270.445 541.354 266.519 537.788 263.807C534.362 260.952 530.506 259.024 526.222 258.025C522.083 257.026 518.016 256.526 514.019 256.526H497.96C496.532 256.526 495.318 257.026 494.317 258.025C493.32 259.024 492.819 260.238 492.819 261.665V328.902C492.819 330.329 493.32 331.543 494.317 332.542C495.318 333.541 496.532 334.041 497.96 334.041Z" fill="white"/>
<path d="M655.358 373.442H623.025C621.454 373.442 620.17 372.942 619.169 371.941C618.315 370.944 617.885 369.729 617.885 368.302V222.052C617.885 220.625 618.315 219.411 619.169 218.412C620.17 217.413 621.454 216.913 623.025 216.913H655.358C656.785 216.913 658 217.413 658.997 218.412C659.998 219.411 660.498 220.625 660.498 222.052V368.302C660.498 369.729 659.998 370.944 658.997 371.941C658 372.942 656.785 373.442 655.358 373.442Z" fill="white"/>
<path d="M250.679 68.9757L266.578 53.0775C258.767 44.3536 247.418 38.8639 234.787 38.8639C215.594 38.8639 199.361 51.5392 194.003 68.9757H154.617C160.648 30.1239 194.245 0.387695 234.787 0.387695C258.043 0.387695 279.013 10.172 293.807 25.8487L315.922 3.73345V68.9757H250.679Z" fill="white"/>
<path d="M314.957 94.0703C308.926 132.922 275.329 162.658 234.787 162.658C211.531 162.658 190.561 152.874 175.768 137.198L153.652 159.313V94.0703H218.895L202.996 109.969C210.807 118.693 222.156 124.182 234.787 124.182C253.98 124.182 270.213 111.507 275.571 94.0703H314.957Z" fill="white"/>
<path d="M793.814 295.653C793.814 312.745 779.956 326.601 762.866 326.601C745.773 326.601 731.918 312.745 731.918 295.653C731.918 278.561 745.773 264.705 762.866 264.705C779.956 264.705 793.814 278.561 793.814 295.653Z" fill="white"/>
<path fill-rule="evenodd" clip-rule="evenodd" d="M762.866 376.788C807.674 376.788 844 340.462 844 295.652C844 250.842 807.674 214.517 762.866 214.517C718.057 214.517 681.731 250.842 681.731 295.652C681.731 340.462 718.057 376.788 762.866 376.788ZM762.866 355.04C795.665 355.04 822.252 328.45 822.252 295.652C822.252 262.853 795.665 236.265 762.866 236.265C730.066 236.265 703.479 262.853 703.479 295.652C703.479 328.45 730.066 355.04 762.866 355.04ZM840.654 295.652C840.654 299.809 837.284 303.18 833.124 303.18C828.968 303.18 825.598 299.809 825.598 295.652C825.598 291.494 828.968 288.124 833.124 288.124C837.284 288.124 840.654 291.494 840.654 295.652ZM762.866 232.919C767.022 232.919 770.391 229.548 770.391 225.391C770.391 221.233 767.022 217.863 762.866 217.863C758.709 217.863 755.336 221.233 755.336 225.391C755.336 229.548 758.709 232.919 762.866 232.919ZM770.391 365.912C770.391 370.069 767.022 373.442 762.866 373.442C758.709 373.442 755.336 370.069 755.336 365.912C755.336 361.756 758.709 358.386 762.866 358.386C767.022 358.386 770.391 361.756 770.391 365.912ZM692.603 303.18C696.76 303.18 700.133 299.809 700.133 295.652C700.133 291.494 696.76 288.124 692.603 288.124C688.447 288.124 685.077 291.494 685.077 295.652C685.077 299.809 688.447 303.18 692.603 303.18Z" fill="white"/>
</g>
<defs>
<clipPath id="clip0_13_136">
<rect width="844" height="376.964" fill="white"/>
</clipPath>
</defs>
</svg>
