<svg width="1611" height="294" viewBox="0 0 1611 294" fill="none" xmlns="http://www.w3.org/2000/svg">
<path d="M1021.43 0.368027C1037.48 -0.212296 1193.55 -0.259072 1195.94 1.36657C1199.95 6.08109 1198.91 11.8012 1198.82 18.1329C1243.35 17.481 1289.38 18.0766 1334.03 18.0679C1333.68 31.5377 1333.97 46.0329 1333.98 59.5772L1198.83 59.4692C1198.86 65.9256 1200.01 72.1095 1195.71 76.6369C1193.54 77.7829 1187.58 77.8812 1184.99 77.8772C1131.41 77.7933 1077.79 78.3232 1024.22 77.7046C1017.23 77.624 1018.39 66.5829 1018.48 62.1821L520.077 61.8732L383.527 61.8821C358.92 61.8829 335.433 61.2401 310.747 63.1337C282.992 63.7288 271.342 103.072 296.664 116.156C344.168 140.701 414.453 131.197 424.641 198.616C424.809 201.642 424.949 204.668 425.062 207.697C427.074 263.543 390.545 292.055 337.298 293.406C278.234 294.905 235.042 269.059 232.945 206.537L279.667 206.54C281.304 218.253 283.22 226.526 291.86 235.268C315.259 258.942 378.94 255.274 377.73 212.66C377.473 203.562 375.301 196.731 367.851 191.02C358.54 183.884 347.056 181.382 335.938 178.559C309.255 171.711 277.111 165.301 256.695 145.691C229.416 119.489 233.372 64.4587 259.311 38.6893C270.737 27.3371 289.065 18.746 305.108 17.2965C330.982 14.9585 358.1 15.9383 384.142 15.9599L526.959 15.9683L1018.49 15.9617C1018.33 9.35286 1017.36 5.37448 1021.43 0.368027Z" fill="#FEFEFE"/>
<path d="M1034 85.5508C1047.28 86.1669 1062.6 85.7637 1076.01 85.6726L1091.63 166.655C1094.2 180.048 1097.48 200.078 1101.01 212.785C1107.14 170.957 1114.72 127.409 1121.76 85.6274C1135.26 85.8226 1148.76 85.8387 1162.26 85.6758C1169.48 127.484 1179.56 172.177 1185.69 213.774C1188.89 200.81 1191.66 181.864 1194.09 168.376L1209.06 85.7274C1222.72 85.9072 1236.7 85.7467 1250.39 85.7363C1246.92 102.768 1242.84 120.322 1239.11 137.349C1228.48 185.335 1218.32 236.945 1206.64 284.311L1165.97 284.306C1157.83 248.324 1149.06 205.734 1142.15 169.46C1138.69 181.368 1135.33 200.941 1132.71 213.589C1127.68 237.131 1122.79 260.7 1118.02 284.296L1077.14 284.316C1065.87 237.859 1057.24 189.856 1046.27 143.251C1041.92 124.764 1037.18 104.219 1034 85.5508Z" fill="#FEFEFE"/>
<path d="M836.622 284.449L801.31 284.411L801.205 265.981C785.423 289.368 764.048 293.756 738.873 283.088C705.324 266.89 700.143 222.278 703.589 187.179C707.696 145.335 742.78 109.724 785.333 134.13C791.085 137.427 796.379 144.581 800.496 150.05C800.15 124.869 800.432 99.113 800.456 73.8896L836.622 73.8545V284.449ZM799.264 185.928C795.525 169.754 784.47 159.588 767.315 161.105C759.098 162.559 752.595 165.173 747.813 172.556C732.507 196.188 736.054 257.814 774.649 255.096C804.42 247.58 804.855 210.166 799.264 185.928Z" fill="#FEFEFE"/>
<path d="M969.951 126.538C1017.27 121.791 1045.88 160.787 1045.49 204.681C1045.09 249.675 1028.28 281.996 981.336 288.214C962.62 288.779 946.071 285.766 931.029 273.403C897.175 245.574 895.178 182.695 922.015 149.649C934.357 134.446 950.889 128.278 969.951 126.538ZM1006.2 185.354C1001.53 165.614 987.362 159.949 968.565 161.068C960.251 163.098 952.147 167.104 948.239 175.085C934.148 203.809 938.225 261.957 983.141 253.568C1011.2 245.771 1011.74 208.788 1006.2 185.354Z" fill="#FEFEFE"/>
<path d="M1297.81 124.846C1338.54 117.921 1371.9 146.335 1377.21 186.189C1383.3 231.982 1368.97 277.452 1318.51 285.633C1278.22 291.555 1243.97 264.402 1238.48 224.281C1232.17 178.258 1246.52 132.841 1297.81 124.846ZM1334.05 239.069C1348.17 211.299 1347.03 156.582 1304.79 158.712C1296.56 159.753 1288.75 162.309 1283.65 169.612C1270.4 188.595 1270.04 230.813 1288.96 246.283C1295.71 251.799 1304.7 252.374 1312.92 252.01C1321.26 250.32 1330 247.012 1334.05 239.069Z" fill="#FEFEFE"/>
<path d="M1482.68 71.6992C1494.5 72.0799 1507.58 71.8226 1519.49 71.8291L1519.45 187.112C1528.73 173.7 1540.04 160.831 1549.79 147.675C1554.59 141.186 1560.02 134.259 1565.25 128.134L1610.35 128.078C1596.87 142.18 1576.61 168.969 1563.21 184.886C1574.59 208.248 1585.62 232.698 1596.68 256.289C1600.69 265.017 1604.76 273.723 1608.87 282.407L1567.69 282.461C1557.59 261.832 1546.57 234.519 1537.19 213.052C1531.16 219.721 1525.26 226.506 1519.49 233.404L1519.55 282.421L1482.41 282.409L1482.45 141.586C1482.44 121.411 1481.48 91.2024 1482.68 71.6992Z" fill="#FEFEFE"/>
<path d="M436.271 88.9541L472.56 88.9815L472.489 130.311L549.078 130.244L549.108 159.318L472.484 159.299C472.668 183.429 471.092 212.157 474.018 235.889C474.536 238.692 477.335 246.487 479.995 248.051C523.699 273.753 515.23 200.773 515.157 188.115C515.004 186.066 514.771 185.055 515.924 183.324C518.995 182.339 544.549 182.868 549.166 182.906C548.558 212.062 555.041 250.603 532.798 273.399C516.253 290.588 485.572 292.537 465.051 281.969C429.943 263.889 436.285 216.175 436.296 182.92L436.271 88.9541Z" fill="#FEFEFE"/>
<path d="M564.237 130.231L600.894 130.292L600.861 196.78C600.854 216.527 595.02 254.955 623.996 254.376C658.139 253.694 652.898 213.719 652.893 190.495L652.83 130.253L689.095 130.264L689.087 184.688L689.081 284.415L654.478 284.401L654.561 263.285C643.078 279.977 633.634 287.739 612.247 288.266C587.906 288.867 570.752 271.868 566.14 248.848C563.038 233.373 564.209 215.708 564.216 199.771L564.237 130.231Z" fill="#FEFEFE"/>
<path d="M223.234 26.2061C224.443 28.1202 223.881 273.713 223.878 293.595C211.142 285.18 207.009 281.827 198.24 269.429C184.198 246.494 181.368 212.59 189.803 187.11C193.245 176.71 199.214 171.23 198.687 158.708C198.214 147.477 193.331 141.759 189.809 132.251C184.096 116.823 183.878 92.6008 187.617 76.7702C193.149 53.346 203.314 38.8339 223.234 26.2061Z" fill="#FEFEFE"/>
<path d="M1456.26 124.777C1460.83 124.34 1467.42 124.476 1472.18 124.451L1472.15 165.469C1424.48 159.284 1428.38 193.874 1428.41 227.363L1428.48 282.444L1391.97 282.41C1391.22 278.884 1391.72 244.398 1391.74 237.937L1391.72 128.108L1426.33 128.185L1426.27 146.402C1435.21 133.039 1440.52 128.26 1456.26 124.777Z" fill="#FEFEFE"/>
<path d="M181.243 26.0098C181.786 28.1836 181.633 43.2627 181.627 46.6191L181.533 93.8473L181.565 293.468C171.605 285.926 167.01 281.333 160.465 270.756C147.839 248.28 145.279 213.551 151.962 188.704C155.41 177.994 160.496 169.996 160.01 158.236C159.917 147.146 153.214 137.58 151.083 127.058C145.544 99.7231 147.907 67.3586 163.703 43.6498C168.73 36.1062 174.284 31.4256 181.243 26.0098Z" fill="#FEFEFE"/>
<path d="M853.565 130.233L890.271 130.247L890.247 284.429L853.525 284.416L853.565 130.233Z" fill="#FEFEFE"/>
<path d="M137.758 34.083C139.146 38.7249 138.102 88.5475 138.093 97.5693L138.169 285.578C132.483 280.107 129.77 276.35 125.9 269.564C113.566 244.455 113.492 211.856 115.575 184.161C116.662 175.973 120.506 168.095 120.335 159.734C120.131 149.743 115.673 140.807 115.148 130.726C114.775 123.53 114.617 116.729 114.667 109.53C114.856 82.9403 117.825 53.6911 137.758 34.083Z" fill="#FEFEFE"/>
<path d="M102.403 48.5674L103.963 50.0972C106.192 57.8101 104.642 109.496 104.642 121.654L104.625 218.082C104.618 235.615 105.091 255.552 104.294 272.884C100.757 268.694 99.4797 266.907 96.6993 262.183C84.114 238.976 85.5473 200.202 87.1997 174.132C89.7046 134.618 76.992 82.2125 102.403 48.5674Z" fill="#FEFEFE"/>
<path d="M68.9234 68.6641C71.7633 68.7673 73.1354 69.552 75.0206 71.4681C75.6829 72.7665 75.898 73.6947 75.9044 75.1391C76.1566 130.323 76.0261 185.52 75.9842 240.704C75.9818 244.664 76.2912 248.02 72.3869 250.086C68.7985 250.221 70.0666 250.488 66.9366 248.697C54.5882 226.596 58.3041 185.453 58.244 160.171C58.1909 137.896 54.2458 85.4754 68.9234 68.6641Z" fill="#FEFEFE"/>
<path d="M37.364 97.0332C38.6787 97.1413 40.0889 97.2461 41.3553 97.6251C43.5524 98.284 45.3221 99.6009 46.4062 101.655C48.11 104.882 48.7963 211.148 46.8227 216.927C45.73 220.126 42.2175 221.581 39.4164 222.896C36.4175 221.573 32.9272 219.314 32.0809 215.907C27.603 197.878 29.9229 178.74 29.8971 160.344C29.975 144.844 28.3604 129.23 30.2132 113.785C31.1984 105.572 30.6794 102.419 37.364 97.0332Z" fill="#FEFEFE"/>
<path d="M1343.41 18.0655L1390.81 18.041V59.6343C1375.22 59.3997 1359 59.5698 1343.36 59.5408L1343.41 18.0655Z" fill="#FEFEFE"/>
<path d="M1428.74 16.5703C1435.25 16.6011 1451.11 34.103 1450.19 40.557C1447.18 46.7441 1438.34 55.8667 1432.6 59.8409C1427.1 63.6498 1424.02 53.4747 1417.6 51.8796C1412.19 55.8562 1408.18 61.5304 1400.99 59.1465C1399.52 56.107 1399.76 22.1922 1402.75 17.6059C1410.78 13.7048 1411.62 35.5312 1428.74 16.5703Z" fill="#FEFEFE"/>
<path d="M853.565 73.8525C865.723 73.98 878.082 73.8614 890.263 73.8598L890.231 111.902L853.533 111.935L853.565 73.8525Z" fill="#FEFEFE"/>
<path d="M8.47588 125.29C11.2668 125.782 17.743 127.417 18.1575 131.034C20.2445 149.244 19.839 169.757 18.3738 188.07C18.1666 190.66 13.5274 192.887 11.4902 193.868C10.5169 193.721 9.54846 193.543 8.58649 193.334C6.84916 192.946 3.29022 191.313 2.74382 189.43C-1.55923 174.592 0.149259 148.054 1.51623 132.447C1.81634 129.021 6.39283 126.567 8.47588 125.29Z" fill="#FEFEFE"/>
</svg>
