<svg width="947" height="721" viewBox="0 0 947 721" fill="none" xmlns="http://www.w3.org/2000/svg">
<g clip-path="url(#clip0_13_278)">
<path d="M840.851 0H855.685C866.732 2.74792 872.109 2.12529 883.392 8.06091C887.438 10.2383 891.234 12.8534 894.716 15.8589C900.866 21.1601 910.503 31.3731 916.468 37.3065C923.612 44.4092 936.032 56.0128 941.331 63.8638C946.954 72.1874 944.087 93.0247 947 103.219V136.379L946.852 136.965C945.909 140.74 946.445 143.957 945.636 147.531C943.407 157.406 940.471 167.484 936.929 176.949C931.875 190.444 923.954 202.792 919.82 216.601C915.538 234.944 911.594 254.183 907.622 272.628L884.839 377.882L877.066 413.998C873.145 432.417 875.147 440.582 853.96 444.166C841.531 487.51 812.413 524.152 772.998 546.041C703.809 584.796 599.574 578.742 522.51 573.1C449.905 567.777 384.731 562.879 313.517 583.7C270.423 596.256 230.473 617.789 196.293 646.888C175.843 664.157 156.838 683.068 139.467 703.426C135.4 708.12 128.231 716.149 124.98 721H124.514C117.273 712.763 87.3594 685.87 84.3001 679.095C82.0588 674.133 82.1222 666.812 81.2247 661.364C73.8429 660.883 66.4518 660.541 59.0566 660.342C54.5533 656.993 19.5459 622.692 17.9986 619.57C19.2833 616.245 26.3205 609.802 29.0618 606.949C47.7208 587.557 66.7903 570.446 87.831 553.755C80.2499 546.827 71.0444 536.865 63.5332 529.586C57.9931 524.221 44.1806 510.795 40.5809 505.491C28.4019 487.542 24.1639 460.045 20.3134 438.98L12.592 395.394C5.69596 387.599 2.7378 387.541 0 377.258V370.193C0.562457 368.341 1.21073 366.486 2.20126 364.813C4.92449 360.211 38.4356 338.43 44.9449 334.818C46.643 333.876 48.3964 333.301 50.2599 332.781C57.017 334.71 62.3235 341.464 67.3124 346.471L89.1535 368.531C87.1721 362.406 86.5982 355.044 83.4534 349.418C80.04 343.312 73.2057 340.47 71.0999 333.348C69.6609 328.483 69.6974 322.497 72.3539 318.043C75.6287 312.552 96.3841 298.784 102.628 297.49C104.819 297.036 106.017 297.565 107.806 298.743C113.051 302.197 148.894 337.91 152.563 343.619C154.043 345.921 154.633 349.122 154.701 351.826C154.875 358.687 150.582 364.644 150.563 371.633C150.554 374.685 151.415 377.882 152.028 380.865C176.744 368.983 179.82 364.16 198.854 385.914C196.119 368.077 194.655 348.936 192.051 330.993C190.979 323.608 190.444 315.6 189.003 308.314C184.635 303.532 180.614 301.058 178.651 294.401C175.174 282.754 181.513 275.902 192.048 272.426C207.161 267.44 222.867 259.28 238.176 255.157C248.238 257.488 248.424 262.871 251.18 264.041C253.398 260.545 249.933 255.144 255.818 249.012C257.221 247.55 259.072 246.296 260.889 245.416C267.523 242.201 315.09 223.719 319.409 223.935C321.585 224.043 324.451 226.265 326.093 227.611C332.055 232.497 337.486 238.703 342.962 244.175C350.329 251.537 358.132 258.765 365.111 266.48C369.004 270.782 370.42 274.895 370.11 280.685L370.376 280.477L370.825 280.136C381.114 272.174 406.927 264.214 420.032 264.666C443.541 265.478 452.049 273.265 467.073 288.308L483.719 304.954L483.677 304.599C483.585 303.666 483.391 302.682 483.446 301.765C486.207 255.899 532.923 239.841 572.167 240.56C596.924 241.013 600.083 244.213 615.92 260.943L615.999 259.554C617.881 229.032 638.522 243.609 651.368 227.107C657.374 219.394 657.911 198.758 668.056 190.426C676.273 183.681 687.791 184.2 698.093 184.009C700.299 184.237 703.961 184.688 705.658 186.15C721.2 199.537 735.423 215.125 749.943 229.662C754.137 233.862 753.392 242.606 752.911 247.945C762.058 257.371 771.685 266.53 780.91 276.018L786.87 201.627C787.906 188.7 789.413 173.139 790.033 160.557C790.472 151.657 785.955 131.802 784.997 121.1C782.089 88.6303 789.33 62.9027 802.763 33.4897C805.172 28.2228 807.734 19.4921 810.392 15.2037C816.972 4.57981 829.781 2.47819 840.851 0ZM777.03 383.985C780.142 391.064 782.778 392.074 789.409 395.971C780.369 425.696 752.994 456.461 725.68 471.129C684.947 492.995 637.792 494.142 592.629 492.944C536.391 490.682 480.103 479.449 424.34 472.581C402.741 469.922 381.249 468.858 359.528 468.021C350.521 467.67 341.443 468.336 332.464 468.895C207.7 473.534 112.296 526.603 27.6467 615.949C40.6437 615.907 53.1966 616.864 66.1596 616.971C71.1411 617.012 75.8969 617.526 80.8367 618.108L85.1722 650.417C85.9472 656.147 87.2646 664.152 87.3853 669.762C90.9337 665.586 96.2527 659.185 100.03 655.324C160.864 581.901 247.765 532.055 344.519 525.345C359.895 524.277 375.499 523.19 390.952 522.949C414.486 523.777 438.914 524.471 462.317 526.534C500.199 529.873 536.812 531.63 574.748 531.931C677.567 532.749 777.867 509.69 810.129 399.116C814.938 398.928 822.563 398.33 825.989 394.406C829.559 390.322 839.921 336.177 842.215 325.64L863.703 226.455C867.397 209.313 871 191.727 875.073 174.671C876.299 169.528 880.752 160.29 883.225 155.1C889.144 142.674 893.403 133.763 896.829 120.377C869.723 141.395 814.166 134.188 792.132 107.031C791.476 106.219 790.999 105.604 790.255 104.832C790.102 111.573 789.871 119.37 790.75 126.252C792.391 139.104 796.114 152.316 794.994 165.289C793.931 177.665 792.96 189.609 791.998 201.756L784.822 291.645L779.934 352.44C779.208 361.827 778.94 375.057 777.03 383.985ZM7.71629 383.467C9.67582 384.096 12.1809 384.83 14.0496 385.554L14.3715 386.038C18.0197 391.576 19.4132 404.111 20.6568 411.248C22.5896 422.366 24.5794 433.474 26.6259 444.572C30.3753 465.029 37.0833 509.209 61.8949 515.753C72.2194 518.477 95.4338 506.67 104.252 500.815C115.466 493.369 125.413 481.188 127.528 467.313C134.105 424.176 116.772 378.992 106.081 337.634C102.036 321.991 114.263 317.412 107.415 305.127C106.775 303.98 105.14 302.16 103.766 301.866C97.3667 304.927 92.1656 309.064 86.0064 312.865C78.552 317.464 72.4913 323.148 76.0139 332.765C77.6975 337.362 84.7519 337.665 86.8082 341.983C89.3625 348.991 91.5242 357.707 93.4631 364.882C98.1042 381.732 102.392 398.678 106.323 415.708C109.262 428.459 114.8 448.328 110.69 461.038C108.299 468.558 102.981 474.801 95.936 478.353C94.1756 479.241 91.9311 479.934 90.0108 480.388C83.9145 478.7 77.7206 476.054 74.5277 470.176C66.6793 455.729 64.5717 438.228 61.4745 422.228C57.9552 404.046 54.3207 386.001 51.2346 367.771C49.7434 358.962 57.7554 354.244 55.486 345.65C54.772 342.762 54.1408 340.115 51.5246 338.316C49.0063 337.858 45.3352 340.263 43.2998 341.73C31.8169 350.009 18.2628 357.447 7.27419 366.262C3.52102 372.088 4.92329 377.668 7.71629 383.467ZM545.945 398.981C578.877 397.774 615.638 377.496 613.025 339.955C611.777 322.004 603.037 308.517 585.688 302.434C573.624 298.203 558.244 297.255 548.303 288.58C547.138 287.526 546.365 285.06 545.958 283.588C546.652 281.097 547.359 278.207 549.306 276.457C554.578 271.714 563.585 270.096 570.29 271.605C586.141 274.933 582.114 305.637 601.858 294.363C610.796 289.258 606.205 261.491 602.126 254.693C595.981 244.447 568.551 245.3 557.703 246.203C534.685 249.244 513.336 254.153 498.576 273.871C483.738 293.689 484.51 324.097 505.332 339.424C515.861 347.173 533.696 346.011 544.266 353.933C547.138 356.082 548.201 359.386 549.191 362.744C545.709 371.764 536.086 376.318 526.949 372.993C516.661 369.252 513.193 357.04 505.392 350.932C499.968 350.949 495.117 350.11 490.891 354.344C482.392 362.857 485.661 379.379 494.248 386.931C506.465 397.677 530.329 399.088 545.945 398.981ZM411.783 270.254C403.318 271.356 398.166 273.8 390.256 276.125C340.007 290.897 335.577 374.03 372.107 404.68C381.816 412.828 398.789 412.566 410.906 411.82C416.255 410.832 421.468 409.22 426.66 408.115C440.415 405.185 451.247 400.589 459.286 388.505C487.428 346.203 477.823 263.905 411.783 270.254ZM900.131 105.895C904.154 85.2015 901.153 53.2772 898.716 31.8575C898.665 29.3893 896.755 25.5444 895.22 23.6565C885.353 11.538 870.916 7.84752 856.605 5.56803C845.11 3.07757 822.581 6.56452 815.41 16.9457C812.834 20.677 810.642 28.01 808.695 32.4521C800.904 50.2277 792.937 69.2424 790.907 88.7542C806.536 119.951 877.334 130.453 900.131 105.895ZM175.584 376.107C170.862 377.278 164.587 380.466 159.748 382.639C153.244 385.559 141.773 389.896 137.982 396.063C133.32 403.648 138.214 431.727 150.634 429.643C156.807 426.937 163.028 424.299 169.225 421.689C176.979 418.423 185.595 415.642 188.633 406.885C191.381 398.964 190.771 389.185 187.22 381.555C184.738 376.377 180.635 375.747 175.584 376.107ZM379.154 463.739C393.669 464.668 407.311 465.972 421.658 467.082C427.957 468.322 435.571 468.789 442.081 469.718L484.316 476.017C557.31 486.682 667.94 503.451 732.584 461.068C742.225 454.749 750.807 446.798 758.71 438.456L724.381 437.988C716.257 437.925 697.927 438.719 691.814 435.535C678.654 428.682 666.719 411.766 655.28 402.063C652.44 408.356 649.481 414.224 644.644 419.317C618.44 446.935 574.479 449.376 540.451 437.02C532.308 434.063 519.148 419.193 512.887 412.801C508.411 425.848 498.114 442.025 485.005 447.651C467.734 455.066 437.829 460.43 419.583 454.446C406.645 450.203 389.418 428.771 378.823 418.885L379.638 425.046C385.887 431.405 393.672 436.809 393.416 446.618C393.154 456.607 388.051 461.07 379.154 463.739ZM751.774 314.924C751.945 334.346 751.26 354.864 750.835 374.343C757.716 381.168 765.012 388.191 771.736 395.118C774.713 398.123 777.978 401.23 780.517 404.584C781.247 402.873 781.973 401.092 782.773 399.419C777.756 394.464 772.258 390.219 772.462 382.798C772.628 376.713 773.266 370.585 773.784 364.527L776.716 328.613C777.104 323.762 778.066 315.329 778.112 310.832C769.285 315.065 761.456 314.441 751.774 314.924ZM212.071 465.866C206.011 468.451 196.261 473.173 190.239 474.778C184.321 476.359 176.627 466.629 172.264 463.119C173.895 476.512 174.579 487.329 173.733 500.903C187.907 494.253 202.491 488.513 217.395 483.718C220.215 482.839 223.987 481.78 226.663 480.716C223.272 477.354 214.724 469.279 212.071 465.866ZM97.0268 400.737C94.7523 410.372 101.598 431.428 102.736 441.666C103.014 444.167 105.272 456.031 106.067 457.881L106.568 458.169C108.61 443.841 103.77 428.916 100.905 414.993C100.461 412.837 98.1921 402.071 97.0268 400.737ZM897.375 34.9542C891.937 50.0852 881.931 52.9683 866.593 54.5796C864.84 54.7641 859.056 54.7081 857.733 53.8156C859.056 52.6853 866.352 50.9912 868.577 50.217C885.699 44.2492 891.035 30.2849 876.146 17.5875C870.949 13.157 867.102 11.3348 860.901 8.44C863.037 7.39795 868.151 8.50946 870.32 9.40195C883.873 14.9723 893.685 20.448 897.375 34.9542ZM707.027 269.941C713.283 270.049 732.108 269.888 735.678 265.587C743.353 256.351 742.123 233.492 725.361 234.91C719.822 235.378 713.085 236.129 708.03 235.975C707.929 227.839 707.915 219.702 707.989 211.567C708.04 194.308 709.677 186.861 688.055 189.338C681.17 190.087 673.373 190.819 668.81 197.147C661.883 206.753 662.599 220.708 655.035 230.909C642.998 247.143 619.467 234.56 621.214 262.101C621.483 266.314 624.511 271.014 627.651 273.719C631.711 273.918 635.258 274.406 639.16 273.204L639.794 273.594C641.246 282.426 639.313 296.188 639.132 305.313C638.818 320.94 639.47 336.562 639.045 352.178C638.665 366.134 636.427 378.835 649.509 388.587C657.009 394.179 667.348 393.043 676.282 393.026L704.008 392.976C717.403 393.085 737.62 396.654 737.971 377.915C738.54 347.434 707.101 374.276 706.093 347.943C705.062 321.842 706.791 295.921 707.027 269.941ZM229.622 447.734C236.133 446.02 261.066 441.114 264.061 436.014C265.417 433.707 265.411 426.993 264.623 424.358C262.977 418.852 256.288 417.746 254.312 412.544C251.865 406.099 251.683 397.488 250.809 390.609C249.336 379.011 247.75 367.402 246.53 355.774C255.147 352.224 268.71 348.227 278.042 345.064C279.766 355.217 286.353 397.974 284.72 405.472C283.655 410.362 279.582 413.739 278.234 418.456C277.163 422.208 278.205 428.811 281.841 431.152C285.001 433.185 289.976 431.678 293.296 430.784C302.921 428.192 312.491 425.442 322.139 422.914C328.278 421.306 335.376 420.121 341.167 417.619C343.298 416.698 345.347 415.453 346.497 413.373C348.195 410.3 348.934 406.236 347.85 402.871C345.556 395.746 337.063 393.947 334.726 386.316C333.434 382.096 333.363 377.133 332.776 372.741L328.965 345.086L321.196 288.772C320.152 280.855 318.765 273.235 318.032 265.178C317.182 255.839 318.764 253.478 323.595 245.774C326.529 241.096 325.736 228.765 317.579 228.995C306.031 233.001 293.913 238.028 282.429 242.34C277.403 244.227 263.438 249.42 259.538 251.925C255.525 259.351 254.904 267.423 263.74 271.743C264.647 272.188 265.559 272.621 266.476 273.042C270.641 280.202 270.858 290.162 272 298.327C272.952 305.14 273.999 312.443 274.589 319.266C267.655 321.629 248.667 327.507 243.266 330.347C241.116 317.269 238.728 300.408 238.25 287.376C237.968 279.696 253.633 270.647 238.994 260.08C228.76 263.198 216.951 268.42 206.753 272.153C202.132 273.844 189.48 278.518 185.771 280.747C181.831 287.246 182.371 291.425 185.522 298.109C188.909 299.98 192.885 301.826 193.803 305.946C194.873 310.745 195.423 316.357 196.038 321.263L199.517 349.124L204.98 393.105C206.456 404.964 208.385 417.115 208.057 429.041C204.084 435.46 200.847 438.18 202.357 446.583C204.424 458.095 221.421 449.964 229.622 447.734Z" fill="#FEFEFE"/>
<path d="M820.006 243.834C826.447 243.5 828.944 244.899 827.742 251.963C827.145 255.46 825.938 269.144 823.497 271.089C823.039 271.1 822.586 271.108 822.128 271.115C819.756 271.146 817.879 271.455 816.182 269.804C813.555 264.778 816.427 253.522 817.144 247.92C817.43 245.685 818.207 245 820.006 243.834Z" fill="#FEFEFE"/>
<path d="M405.963 294.715C427 294.678 424.583 342.334 425.799 356.485C426.669 366.612 424.55 384.853 412.816 388.171C411.526 388.138 408.59 388.121 407.537 387.706C399.803 384.66 396.272 370.039 395.311 362.92C392.788 344.227 389.734 322.565 395.87 304.5C397.395 300.012 401.625 296.335 405.963 294.715Z" fill="#FEFEFE"/>
<path d="M860.901 8.44018C863.037 7.39813 868.151 8.50964 870.32 9.40213C883.873 14.9725 893.685 20.4482 897.375 34.9544C891.937 50.0854 881.931 52.9685 866.593 54.5797C864.841 54.7643 859.056 54.7083 857.733 53.8157C859.056 52.6854 866.353 50.9914 868.577 50.2172C885.7 44.2494 891.036 30.285 876.146 17.5877C870.949 13.1572 867.102 11.335 860.901 8.44018Z" fill="#FEFEFE"/>
<path d="M856.605 5.56787C870.916 7.84737 885.353 11.5378 895.22 23.6563C896.755 25.5442 898.665 29.3892 898.716 31.8574C896.894 33.5848 898.133 32.8429 897.375 34.9541C893.685 20.4478 883.873 14.9722 870.32 9.4018C868.151 8.50931 863.037 7.3978 860.901 8.43985C860.286 7.78743 857.673 6.31116 856.605 5.56787Z" fill="black" fill-opacity="0.0431373"/>
</g>
<defs>
<clipPath id="clip0_13_278">
<rect width="947" height="721" fill="white"/>
</clipPath>
</defs>
</svg>
