<svg width="828" height="273" viewBox="0 0 828 273" fill="none" xmlns="http://www.w3.org/2000/svg">
<path d="M55.3479 91.1384L49.8164 61.821C46.7518 45.6688 43.9267 35.0065 53.6668 19.7761C60.1338 9.66371 68.2026 7.01275 79.547 4.99276C89.9513 3.14008 101.136 0.463595 111.682 0C120.418 0.0551465 128.771 6.33362 133.958 12.6927C140.815 21.0994 141.197 27.8908 143.155 37.9404C154.802 45.5443 158.651 80.4078 155.572 92.9306C156.105 93.5751 156.66 94.2002 157.237 94.8046C162.414 100.164 170.229 103.446 177.617 103.363C190.259 103.222 195.202 101.591 204.009 92.9798C200.825 86.4118 198.814 77.1528 209.772 81.8268C207.929 75.0185 205.9 61.4251 215.574 59.019C217.89 58.4427 221.982 58.5556 224.275 59.2382L225.153 58.9462L233.22 60.1256C234.176 60.5133 235.055 60.4467 236.087 60.4574C242.81 58.8936 252.195 26.7597 260.866 22.8019C264.574 21.1093 266.495 24.164 268.217 26.8292C267.826 27.6326 267.448 28.6313 266.795 29.1836C265.829 27.1155 265.082 25.0693 262.938 24.1081C257.492 24.6254 247.555 47.8023 245.353 52.6922C243.887 55.9481 242.578 57.8598 239.899 60.3159C241.797 60.4562 245.188 60.5633 246.835 61.205L247.856 62.8341C249.392 62.8217 251.46 60.903 252.493 59.8042C258.738 53.1634 265.797 41.9459 267.353 32.9847L267.711 31.6087C268.142 33.9478 267.625 34.1803 268.801 36.4486C267.367 43.1994 261.278 52.4883 256.692 57.7857C255.718 58.9106 251.626 62.8978 251.298 63.8063C254.958 66.1806 253.666 63.9317 256.622 68.1328C262.56 76.5719 254.867 82.9814 246.731 85.7706C244.212 91.5236 242.547 94.5444 237.52 97.3427C234.473 99.0389 226.87 96.2923 226.86 98.0836C226.786 109.959 219.965 109.764 210.821 102.818C203.616 110.526 193.761 115.398 183.173 115.738C170.635 116.139 165.405 112.543 155.946 105.515L159.178 122.45C161.74 135.976 162.084 139.852 153.925 152.403C149.951 158.515 143.152 162.555 136.076 164.288C144.457 173.51 149.411 191.427 146.041 203.604C151.105 208.152 154.688 210.868 160.437 214.581C162.835 211.033 165.252 207.274 169.844 206.033C171.447 205.6 172.116 206.987 173.646 206.201C178.676 197.152 180.183 186.146 192.03 182.735C202.999 179.528 213.749 184.495 216.898 195.711C218.798 202.477 215.617 212.674 211.854 218.122C205.473 227.359 201.35 230.845 197.099 241.723C205.597 241.935 232.816 246.193 240.207 252.495C240.855 253.047 241.426 254.276 241.375 255.207C241.303 256.541 240.355 257.839 239.33 258.637C234.379 262.489 224.336 264.759 218.205 265.948C200.366 269.406 181.821 270.946 163.72 271.912C130.857 273.71 97.9072 273.162 65.1223 270.272C59.8522 269.771 -2.40572 264.086 12.262 251.655C18.5298 246.343 57.068 239.784 65.8316 240.604C67.6551 240.824 67.5331 240.496 68.4603 241.569C68.5414 243.191 67.8478 245.177 68.8139 246.257C69.0811 249.24 69.4463 256.671 71.3375 258.782C77.6379 265.468 88.8073 264.567 96.9812 263.734C112.314 262.172 112.476 251.168 104.383 240.531C104.701 239.701 104.931 238.833 105.177 237.977C109.815 238.219 115.334 237.828 120.064 237.886C131.095 238.02 143.083 237.628 154.018 238.354C153.51 232.453 154.135 229.811 155.392 224.168C151.501 220.128 145.623 214.52 141.288 211.163C140.115 212.347 138.039 214.407 136.727 215.268C131.111 218.949 117.911 222.159 111.28 222.795C105.186 222.225 108.04 223.3 104.948 224.711C103.782 224.24 103.509 223.86 102.597 224.215C103.015 225.553 103.449 226.28 104.123 227.515C98.3667 228.177 97.6859 217.643 100.582 214.553C101.295 213.791 102.49 214.062 103.438 214.077C104.513 214.02 104.631 213.98 105.577 213.46L106.273 213.957C114.056 215.051 128.458 209.952 135.389 206.287C132.605 203.312 127.253 199.152 124.036 196.251C114.144 187.332 103.849 179.326 95.1267 169.216C59.2434 162.988 64.4015 128.42 57.0014 100.339C50.5724 100.87 46.2352 101.385 40.6739 105.079C30.488 111.845 28.4652 117.436 26.0139 128.521C29.289 129.086 40.8757 132.177 38.6805 137.067C37.3628 138.156 37.1077 138.384 35.4881 138.866C34.309 138.984 34.156 139.192 33.2362 138.76L33.5021 137.067L36.7987 135.387C29.9578 129.608 21.6611 130.358 13.0931 130.578C11.3197 130.623 8.62567 131.114 7.33263 132.403C6.65395 135.318 10.8853 136.466 13.077 137.42C5.61294 148.153 0.218074 158.147 2.2816 171.738C2.70907 174.553 5.47617 180.493 8.59035 180.743C9.95651 180.336 10.3395 179.808 11.3547 178.775L12.548 179.541C6.26068 192.747 -11.1009 165.848 10.5572 137.87C8.64221 137.14 4.90772 135.705 4.85842 133.425C4.76019 128.878 12.819 128.481 15.6227 128.325C15.617 127.732 15.6196 127.139 15.6305 126.546C15.7909 118.323 19.2801 108.54 25.3948 102.963C32.8243 96.1876 45.3018 90.9125 55.3479 91.1384ZM101.834 3.56677C105.615 6.91809 111.486 11.6147 111.869 17.2169C111.892 17.5666 111.9 17.9171 111.895 18.2675L111.388 18.5589C108.385 16.4601 100.569 1.44088 93.4489 5.61046C94.0213 6.55077 95.7938 6.94023 96.7583 7.82133C99.5024 10.3275 107.236 17.6113 103.464 21.3773C103.012 21.3859 102.584 21.4249 102.315 20.9445C99.1438 15.285 95.0105 7.92161 87.9541 6.87275C87.1762 6.75712 85.6245 6.80883 84.9454 7.26577C90.3727 12.187 93.7061 13.588 94.8678 22.7497C94.9456 23.3599 94.8232 23.8763 94.4795 24.4041L93.5887 24.3656C87.5257 17.5146 89.4674 14.4706 78.3799 8.6216C69.7957 9.72502 61.8353 14.7121 56.3186 21.3263C52.1092 26.3729 48.7398 38.0687 49.6518 44.6511C49.8788 46.2894 50.4314 49.076 50.7792 50.8144C53.0526 49.261 58.6929 45.2898 60.9341 44.2721C65.8775 42.0278 88.4289 36.0899 91.9741 38.9114C92.3984 40.1252 91.51 42.3716 91.5373 42.415C100.669 56.7635 103.666 75.7499 104.62 92.4668C104.878 96.9766 102.212 99.7546 99.2939 102.61C112.786 99.6379 112.463 103.166 124.151 109.312C128.516 111.609 143.864 112.727 137.171 122.216C129.013 133.778 109.671 130.774 100.234 122.147C85.2142 125.018 80.8369 125.683 66.5231 132.229C67.1034 135.122 67.9487 138.818 68.2556 141.686C71.7313 139.882 74.1325 138.799 77.7694 137.341C82.7092 135.608 106.443 128.261 109.466 133.78C109.415 134.405 109.504 134.96 108.903 135.279C103.54 138.124 93.2346 137.9 87.3842 139.626C80.8349 141.558 75.362 144.551 69.2324 146.385C76.3385 166.198 95.6942 168.821 113.973 165.833C116.412 160.304 116.692 152.747 119.108 149.855L120.059 149.541C123.983 151.979 121.107 161.113 119.826 164.655L125.347 163.748C126.17 160.124 126.447 150.888 127.566 149.346C129.021 149.145 128.473 149.033 129.735 149.802C131.534 152.854 130.03 159.478 129.207 162.913L133.696 162.119C134.161 160.583 134.48 159.448 134.789 157.872C135.231 155.616 134.702 149.472 136.467 148.156C141.837 147.436 139.701 157.792 138.923 160.578L144.967 157.484C145.433 153.364 144.713 150.211 145.204 146.364C145.608 145.887 145.952 145.48 146.238 145.142L147.216 144.877C149.293 146.406 148.571 152.97 148.362 155.18C154.596 147.781 158.247 140.831 157.76 131.038C154.663 131.392 145.809 132.874 143.944 129.928C144.285 125.451 154.207 126.237 157.154 126.593C156.561 123.147 155.887 119.541 155.382 116.098C152.583 116.408 143.151 118.047 141.24 115.705C141.1 112.521 150.597 112.003 152.679 111.926C153.25 111.903 153.822 111.895 154.394 111.903C153.831 109.134 152.983 105.512 152.623 102.775C149.759 102.991 141.059 103.969 139.148 102.344L138.686 101.359C139.303 99.7376 140.426 99.2271 142.002 98.2731C141.028 96.2952 138.036 94.2623 137.488 92.7225C132.364 78.3385 129.46 62.7402 128.811 47.4978C128.661 43.9677 130.323 41.4813 132.373 38.8166C130.109 38.9887 127.852 39.2949 125.886 37.9462L125.714 37.1995C128.096 33.5812 135.094 32.8432 138.999 32.5338C136.864 20.6728 135.959 17.2618 125.285 8.61676C122.032 5.98226 112.85 2.6086 108.761 3.23254C111.309 4.45661 113.377 5.38549 115.198 7.66652C116.844 9.72858 118.76 14.6137 117.641 17.1372C116.18 16.822 114.028 11.4828 112.755 10.0453C109.699 6.59272 106.153 4.86766 101.834 3.56677ZM165.928 247.671C169.537 252.487 173.538 256.143 179.953 255.866C181.491 255.652 182.448 256.255 183.898 255.763C195.543 248.206 193.004 243.508 198.929 232.871C204.89 222.169 217.088 211.867 214.934 197.413C213.141 185.378 197.694 180.369 188.128 187.294C177.629 194.945 176.137 210.588 171.894 221.587C167.352 233.361 164.57 234.183 165.928 247.671ZM51.7784 55.9212L53.7164 65.7776C55.0237 65.7946 56.7384 63.8481 57.9874 63.1221C63.2054 60.0896 69.0844 57.3406 74.8649 55.5902C75.0328 54.0421 76.0969 46.9215 75.6391 46.3005C64.4073 48.6139 61.6934 50.4334 51.7784 55.9212ZM73.7483 61.8288C67.091 64.28 60.4502 68.1448 54.7243 70.1769C55.0497 72.4494 55.9319 80.3718 57.3993 81.6464L58.2103 81.3469C64.5404 78.7087 70.9058 76.2894 77.2562 73.7174C76.8253 71.3026 75.7388 63.7914 75.092 62.1763C74.2884 61.7784 74.5775 61.7941 73.7483 61.8288ZM66.1501 126.532C76.3339 122.108 86.1083 118.336 97.3832 117.942C95.7971 113.88 95.5635 112.145 96.2496 107.752L95.6288 107.561C82.8556 109.001 75.1131 112.625 63.8614 118.348C64.1608 119.886 64.9118 126.173 66.1501 126.532ZM57.8368 86.8673C58.1714 88.8204 59.0701 96.0412 60.506 97.0014L61.7525 96.603C68.7854 93.41 75.1453 90.347 82.7265 88.7228C82.102 87.3063 78.8526 78.674 78.202 78.4307C71.2825 80.9613 64.4408 83.5784 57.8368 86.8673ZM148.028 69.5249C148.35 74.477 147.968 79.0748 146.976 83.9375C146.094 88.2611 145.216 90.8236 140.254 91.5033C140.234 91.9972 140.166 92.0324 140.38 92.4337C142.58 94.9234 147.154 98.5809 150.082 95.6664C155.81 89.966 153.599 78.4626 152.67 71.4507C151.354 61.5082 150.542 51.3862 144.711 43.0389C142.861 40.4508 138.382 40.2117 135.486 40.3093C133.846 41.804 131.247 44.9146 131.749 47.2607L132.169 47.5933C140.155 40.8934 145.201 55.8384 146.156 61.4027C146.652 64.2974 146.439 65.2439 144.016 66.9174C143.625 67.1846 143.229 67.4453 142.829 67.6989C144.125 68.1337 146.883 68.9884 148.028 69.5249ZM62.8303 113.206C63.6868 112.687 64.7584 111.996 65.6211 111.541C73.3446 107.671 80.7918 103.2 89.6175 102.634C88.3148 100.845 85.9003 96.2273 85.0529 95.5476L84.0463 95.5588C74.044 96.0118 68.4942 101.038 61.0577 103.482L62.8303 113.206ZM129.928 189.985C133.154 192.713 136.339 195.443 139.677 198.034C140.714 186.381 139.01 179.948 131.649 170.699C130.329 169.041 128.332 166.86 126.27 166.63C119.681 167.824 113.08 168.955 106.469 170.023C109.626 172.571 112.492 175.446 115.554 178.127C120.251 182.192 125.044 186.146 129.928 189.985ZM99.3853 116.958C102.569 124.862 111.741 126.67 119.27 127.77C116.041 117.292 109.32 116.254 99.3853 116.958ZM170.738 208.226C165.968 210.402 164.013 213.447 161.313 217.891C159.076 221.573 152.451 235.875 158.189 238.626C159.695 238.57 161.205 238.688 162.412 237.822C164.341 234.981 175.433 210.513 170.738 208.226ZM244.171 86.3303C232.856 87.9818 230.588 84.4674 237.12 75.0429C230.419 74.7301 227.228 72.8449 221.525 69.3942C231.05 72.3261 243.584 76.9219 245.808 62.8834C241.231 62.8403 236.659 62.5991 232.104 62.1598C227.792 61.7022 221.664 60.6643 217.51 61.1098C216.878 61.2252 216.069 61.4445 215.469 61.5194C205.456 62.7717 213.129 83.3107 211.541 85.2096C210.032 82.9388 207.74 81.5728 204.992 82.7667C200.436 87.9214 216.595 109.322 222.94 104.525C224.406 102.308 224.609 99.4348 224.255 96.8115C223.985 94.8092 222.434 95.3168 222.926 94.1022C227.999 93.4837 232.996 99.0807 239.367 93.3261C241.58 90.6986 242.443 89.237 244.171 86.3303ZM249.26 66.4453C247.191 67.1453 247.899 66.7155 246.613 68.5354C244.412 71.6501 243.035 73.3012 239.362 74.7376C237.962 77.1793 235.421 80.6647 236.043 83.271C237.812 85.1062 240.396 84.7206 242.824 84.3181C247.761 83.1978 252.317 81.8218 255.369 77.3712C258.386 72.969 254.197 66.4263 249.26 66.4453ZM76.5949 56.6559C84.677 46.574 92.6192 61.756 94.6027 68.6818C93.0204 70.5981 91.8827 71.6898 90.065 73.3988C91.6027 73.3645 93.5092 73.1386 94.8128 73.8415C96.5585 75.8595 96.2798 79.755 96.1921 82.3121C96.0015 87.8718 96.1218 92.2748 91.7954 96.3064L90.1366 96.8864C89.7557 100.272 93.2516 101.164 95.9287 100.511C98.1756 99.9639 99.8088 97.9372 101.24 96.2629C103.68 84.3065 97.707 58.1188 91.2511 46.8387C89.206 43.2652 86.4268 42.4101 82.4461 42.48C76.695 45.8823 76.8745 50.6684 76.5949 56.6559Z" fill="#FEFEFE"/>
<path d="M179.953 255.865C177.679 250.112 179.44 240.674 182.191 235.286C184.169 231.354 187.065 227.585 188.28 223.317C191.3 212.705 190.541 198.287 201.958 192.57C203.677 191.71 206.945 190.563 208.8 191.172C208.638 191.991 207.053 192.288 206.199 192.587C192.404 197.414 193.559 213.397 189.538 224.768C187.738 229.859 183.305 234.633 182.175 240.245C181.249 244.842 178.598 252.704 183.763 255.686L183.898 255.763C182.448 256.255 181.49 255.652 179.953 255.865Z" fill="#FEFEFE"/>
<path d="M642.12 129.254L723.536 129.205C737.209 129.205 751.535 128.594 765.001 130.108C771.726 130.864 780.233 135.008 784.84 139.889C798.12 153.948 795.143 176.244 779.344 186.636C788.703 190.54 795.18 194.636 799.547 204.367C802.682 211.355 802.748 227.502 797.099 233.075C795.32 233.744 791.846 237.591 789.853 239.187C786.946 241.47 783.711 243.306 780.258 244.635C776.933 245.914 773.422 246.654 769.861 246.828C764.522 247.105 756.808 246.838 751.233 246.833L714.028 246.8L670.888 246.819C665.934 246.823 646.297 247.379 643.038 245.965C641.992 243.366 642.356 228.016 642.352 224.473L642.356 159.821C642.364 153.621 642.852 134.457 642.12 129.254ZM688.362 219.892L732.304 219.975C738.859 219.979 746.097 220.162 752.606 219.71C753.57 219.642 755.249 218.229 756.039 217.546C759.244 212.492 758.827 208.319 753.793 204.6C749.124 203.885 741.146 204.124 736.146 204.133L704.524 204.195C700.236 204.204 692.44 204.454 688.482 204.151L688.362 219.892ZM688.374 173.465L724.603 173.607C729.773 173.611 743.322 174.714 747.06 171.341C748.81 168.754 749.728 166.898 749.182 163.617C747.863 155.742 736.39 157.636 730.418 157.645L702.134 157.701C698.925 157.708 691.451 157.94 688.461 157.671L688.374 173.465Z" fill="#FEFEFE"/>
<path d="M518.986 129.255C535.488 129.218 557.023 128.551 573.028 129.365L573.065 129.487C575.551 137.109 585.278 151.147 588.194 158.095C593.124 169.833 634.994 241.214 634.915 246.381C633.414 247.48 594.187 246.608 590.237 246.663C589.141 246.679 586.842 245.773 585.853 245.076C584.583 242.734 584.356 241.394 582.085 240.022C580.328 236.488 578.032 231.779 576.618 228.102C563.371 228.015 550.12 227.997 536.874 228.047C531.464 228.051 521.906 228.329 516.84 227.919C515.438 230.967 510.459 242.847 508.808 245.161C507.944 245.19 506.587 246.651 505.719 246.688C489.991 247.361 474.229 246.639 458.472 246.907C458.472 246.907 457.711 246.426 457.641 246.38L457.393 244.287C462.732 232.908 471.798 217.199 477.877 205.85L518.986 129.255ZM530.356 198.915L547.246 198.927L562.974 198.955C560.944 194.669 547.92 165.296 546.348 164.224C541.286 175.497 535.037 187.756 530.356 198.915Z" fill="#FEFEFE"/>
<path d="M464.477 16.9405C494.04 15.2246 532.113 18.9844 534.922 57.1972C537.568 93.265 518.763 108.1 484.077 110.015C455.069 112.376 416.23 107.321 413.236 71.2742C410.035 32.682 429.129 19.638 464.477 16.9405ZM476.707 81.951C491.554 80.832 501.372 77.9539 500.198 60.8204C499.172 45.8733 483.667 44.8316 471.996 45.0687C456.888 46.3317 446.52 48.2169 447.897 66.5179C449.002 81.2494 465.077 82.2452 476.707 81.951Z" fill="#FEFEFE"/>
<path d="M312.118 128.981C327.402 128.921 343.102 128.778 358.37 128.985L358.401 210.292L363.543 210.469C365.231 212.27 438.989 209.633 449.481 211.486C450.623 216.058 450.251 240.842 449.94 246.54C445.015 247.045 436.851 246.725 431.582 246.711L398.719 246.684L344.316 246.686C334.233 246.685 322.948 246.914 312.976 246.525C312.086 242.031 312.468 224.028 312.47 218.511L312.478 160.418C312.475 152.184 312.886 136.681 312.118 128.981Z" fill="#FEFEFE"/>
<path d="M722.722 19.0116C727.792 18.8837 732.916 18.8923 737.991 18.9242C767.656 19.111 797.397 18.613 827.054 19.0096C827.083 26.64 827.07 34.2703 827.013 41.9007C804.295 42.3168 780.353 41.9693 757.544 41.9553L757.52 53.0963C779.787 53.7371 804.547 53.1683 827.033 53.2415C827.079 60.1172 827.075 66.9929 827.017 73.8687C815.379 74.0573 803.34 73.9059 791.668 73.9129L757.54 73.8956L757.516 85.1752C780.043 85.8507 804.274 85.1768 827.029 85.3783C827.108 93.0297 827.091 100.682 826.979 108.333C817.041 108.849 804.477 108.354 794.34 108.437C770.527 108.63 746.552 108.21 722.73 108.466C722.267 79.1446 722.589 48.4136 722.722 19.0116Z" fill="#FEFEFE"/>
<path d="M642.074 16.9396C660.45 16.0504 683.949 16.9826 699.003 28.9851C707.949 36.119 711.03 44.918 712.204 55.879C702.332 56.1061 686.054 56.3887 676.467 55.7942C675.119 52.9496 673.506 50.5692 670.652 48.9479C660.962 43.4473 634.002 42.5442 627.504 53.4101C623.307 60.4384 624.266 74.1378 632.587 78.4155C641.512 83.0051 654.56 82.5016 664.279 80.7487C670.342 79.5453 673.808 76.1227 676.777 71.1393C682.059 70.925 688.3 71.0747 693.651 71.0677C699.83 71.0615 706.009 71.095 712.188 71.169C709.52 98.4072 688.391 108.082 664.044 109.899C634.717 112.088 594.067 108.945 590.696 71.7904C587.148 32.6716 606.478 19.7321 642.074 16.9396Z" fill="#FEFEFE"/>
<path d="M285.556 19.0344C297.024 18.7165 313.145 18.5971 324.509 19.0839C331.75 34.7406 338.307 50.8547 345.445 66.5713C347.564 71.2383 349.707 76.1001 351.592 80.8597C354.78 74.732 357.222 67.9849 360.177 61.7277C366.745 47.8194 372.253 32.6903 379.095 18.9802C392.027 18.8913 404.96 18.888 417.892 18.9704C414.762 25.6057 411.486 32.1699 408.062 38.6588C395.831 61.1642 384.311 85.5673 372.231 108.392C364.084 108.475 355.937 108.505 347.791 108.483C342.487 108.487 336.082 108.664 330.868 108.232L300.711 49.0775C296.772 41.4281 288.447 26.3876 285.556 19.0344Z" fill="#FEFEFE"/>
<path d="M545.368 18.9435C555.559 18.4134 569.699 18.8452 580.22 18.8867L580.195 108.148C568.789 108.221 556.713 108.327 545.352 108.044L545.368 18.9435Z" fill="#FEFEFE"/>
<path d="M14.5659 148.26C15.6803 149.447 11.1991 165.422 10.4184 167.933L9.98296 167.522C8.92384 164.278 12.9991 151.72 14.5659 148.26Z" fill="#FEFEFE"/>
<path d="M24.8942 148.997C26.2628 151.961 23.723 165.09 22.5957 168.76C21.5993 166.409 23.6572 151.666 24.8942 148.997Z" fill="#FEFEFE"/>
<path d="M312.118 128.98C312.886 136.681 312.475 152.183 312.478 160.418L312.47 218.511C312.468 224.028 312.086 242.031 312.976 246.524C322.948 246.913 334.233 246.685 344.316 246.685L398.719 246.683L431.582 246.71C436.851 246.725 445.015 247.045 449.94 246.539C450.25 240.842 450.623 216.058 449.481 211.486C438.989 209.632 365.231 212.269 363.543 210.468C374.14 210.124 386.006 210.39 396.694 210.39L451.388 210.466C451.475 223.099 451.45 235.734 451.313 248.367C414.269 248.918 377.013 248.027 339.955 248.446C330.738 248.55 321.027 248.667 311.86 248.289C311.328 222.262 311.855 194.228 311.843 168.031L311.781 143.391C311.771 139.68 311.59 132.343 312.118 128.98Z" fill="#FEFEFE"/>
<path d="M642.12 129.254C642.852 134.458 642.364 153.622 642.356 159.821L642.352 224.474C642.356 228.017 641.992 243.366 643.038 245.966C646.297 247.38 665.934 246.824 670.888 246.819L714.028 246.801L751.233 246.833C756.808 246.838 764.521 247.106 769.861 246.828C773.422 246.655 776.933 245.914 780.258 244.635C783.711 243.307 786.945 241.471 789.853 239.187C791.846 237.591 795.32 233.744 797.099 233.075C795.916 235.276 793.509 237.745 791.631 239.382C779.29 250.118 762.813 248.611 747.755 248.617L710.699 248.617L667.939 248.619C660.152 248.632 649.523 248.946 641.938 248.372C641.586 239.166 641.818 228.511 641.814 219.19L641.818 166.692V142.081C641.814 139.293 641.64 131.685 642.12 129.254Z" fill="#FEFEFE"/>
<path d="M573.028 129.365C574.104 129.59 574.397 129.603 575.08 130.785C577.015 134.135 578.868 137.667 580.692 141.074L591.412 161.107L624.866 223.482C627.736 228.837 635.201 243.69 638.278 248.34C628.183 248.585 618.079 248.678 607.979 248.619C601.019 248.638 592.698 248.855 585.845 248.565C584.658 245.884 583.144 242.708 582.086 240.022C584.356 241.394 584.584 242.734 585.853 245.076C586.842 245.773 589.141 246.679 590.237 246.663C594.187 246.608 633.414 247.481 634.916 246.381C634.994 241.214 593.124 169.834 588.194 158.095C585.278 151.147 575.551 137.109 573.066 129.487L573.028 129.365Z" fill="#FEFEFE"/>
<path d="M93.6887 208.51C98.872 201.841 104.644 206.693 105.576 213.46C104.631 213.98 104.513 214.02 103.437 214.077C101.32 196.176 86.8585 214.66 94.6531 230.332C99.7339 233.912 103.497 234.241 105.505 227.246C105.449 226.117 105.496 225.708 104.948 224.711C108.04 223.3 105.186 222.225 111.28 222.795L107.37 223.609C106.338 227.374 108.091 230.752 103.593 233.788C100.583 235.821 98.1085 233.486 96.8351 234.797C97.7698 235.633 101.608 235.341 105.177 237.977C104.93 238.833 104.701 239.701 104.383 240.531C102.947 238.84 101.997 237.775 98.9493 237.502C93.9529 237.055 88.6112 240.262 83.9498 241.552C83.8104 241.401 83.6715 241.25 83.5321 241.099C85.0607 238.227 91.8387 236.922 94.8181 235.759C95.2627 235.477 95.1626 233.553 94.9732 233.341C90.9512 228.835 90.1658 224.626 90.9156 218.665C91.2014 216.393 92.7887 209.687 89.6944 208.755C85.7307 207.561 77.5675 210.27 76.2325 214.65C70.6745 225.136 69.2142 234.749 68.8138 246.257C67.8477 245.177 68.5413 243.191 68.4602 241.569C67.533 240.496 67.655 240.824 65.8315 240.604C66.5814 240.281 67.0785 240.237 67.2774 239.229C67.7948 236.613 68.1203 233.776 68.5756 231.151C69.4871 226.102 71.0091 221.182 73.1084 216.501C77.1416 207.557 84.5718 204.406 93.6887 208.51Z" fill="#FEFEFE"/>
<path d="M33.5021 137.066L33.2362 138.76C34.156 139.192 34.309 138.983 35.4881 138.866C36.9186 140.883 45.5747 141.695 51.1435 147.417C52.8962 157.15 49.9975 161.053 40.4084 163.22C45.7658 168.934 49.5426 183.103 37.4765 182.039C35.9575 181.905 31.5715 181.22 30.356 181.607C28.3742 183.651 27.3423 184.854 24.2123 185.074C20.9192 185.305 14.7697 181.721 12.548 179.54L11.3547 178.775C10.4024 177.276 9.54709 176.87 8.32593 174.608L8.53019 173.969C10.0396 174.082 12.7735 177.008 14.4236 178.178C18.273 180.908 21.0617 181.767 25.4308 183.08C26.7919 182.233 27.8791 181.273 29.1004 180.249C25.3328 178.339 22.8944 176.768 19.8016 173.907C26.5358 175.394 33.5153 181 40.4597 179.299C45.5789 178.045 41.7202 164.844 38.4708 163.563C38.4939 163.009 38.8025 162.133 38.9729 161.571L39.9658 161.806C42.9527 160.56 45.1384 159.536 47.2241 156.965C57.6391 144.125 32.6481 144.02 32.0753 138.262L33.5021 137.066Z" fill="#FEFEFE"/>
<path d="M224.275 59.2377C224.141 53.6643 227.65 44.0614 228.846 38.1327C230.203 31.4067 230.757 22.3058 234.743 16.6164C236.032 14.7758 239.367 14.5579 240.827 16.4175C244.455 21.2418 244.147 30.2814 243.929 36.0704C243.697 42.2523 242.728 48.3259 239.578 53.6085C238.567 55.2889 236.533 58.7239 236.087 60.4569C235.055 60.4461 234.176 60.5127 233.22 60.1251C233.265 60.0908 233.309 60.056 233.354 60.0217C238.91 51.1337 242.323 40.3286 241.759 29.9004C241.504 25.171 241.228 20.2157 238.513 17.6805C233.342 16.4153 232.443 31.489 231.543 35.0456C229.64 42.5667 228.147 51.8548 225.153 58.9456L224.275 59.2377Z" fill="#FEFEFE"/>
<path d="M455.304 248.288C455.921 246.792 456.595 245.674 457.393 244.287L457.641 246.38C457.711 246.426 458.472 246.907 458.472 246.907C474.23 246.639 489.991 247.361 505.719 246.688C506.588 246.651 507.944 245.19 508.809 245.161C508.383 246.339 508.081 246.852 507.448 247.941C505.67 249.258 460.288 248.555 455.304 248.288Z" fill="#FEFEFE"/>
<path d="M32.4946 172.211C33.1659 169.79 37.3475 158.425 39.3757 157.966C39.8161 159.125 39.3128 160.355 38.9729 161.572C38.8025 162.133 38.4939 163.009 38.4708 163.563C37.4923 167.38 35.4062 169.772 32.4946 172.211Z" fill="#FEFEFE"/>
<path d="M268.217 26.8291C269.295 30.2996 269.745 32.8199 268.801 36.4485C267.625 34.1802 268.142 33.9477 267.711 31.6086L267.353 32.9846C267.149 32.1187 266.932 30.1482 266.795 29.1835C267.448 28.6312 267.826 27.6325 268.217 26.8291Z" fill="#FEFEFE"/>
<path d="M104.123 227.514C103.449 226.279 103.015 225.553 102.597 224.215C103.51 223.86 103.782 224.24 104.948 224.711C105.496 225.708 105.449 226.117 105.505 227.245L104.123 227.514Z" fill="#FEFEFE"/>
</svg>
